<svg width="164" height="164" viewBox="0 0 164 164" fill="none" xmlns="http://www.w3.org/2000/svg">
<g clip-path="url(#clip0_0_4)">
<mask id="path-1-inside-1_0_4" fill="white">
<path d="M0 0H16V16H0V0Z"/>
</mask>
<path d="M0 0V-1H-1V0H0ZM0 0V1H16V0V-1H0V0ZM0 16H1V0H0H-1V16H0Z" fill="#E9F3FF" mask="url(#path-1-inside-1_0_4)"/>
<mask id="path-3-inside-2_0_4" fill="white">
<path d="M164 0H148V16H164V0Z"/>
</mask>
<path d="M164 0V-1H165V0H164ZM164 0V1H148V0V-1H164V0ZM164 16H163V0H164H165V16H164Z" fill="#E9F3FF" mask="url(#path-3-inside-2_0_4)"/>
<mask id="path-5-inside-3_0_4" fill="white">
<path d="M0 164H16V148H0V164Z"/>
</mask>
<path d="M0 164V165H-1V164H0ZM0 164V163H16V164V165H0V164ZM0 148H1V164H0H-1V148H0Z" fill="#E9F3FF" mask="url(#path-5-inside-3_0_4)"/>
<mask id="path-7-inside-4_0_4" fill="white">
<path d="M164 164H148V148H164V164Z"/>
</mask>
<path d="M164 164V165H165V164H164ZM164 164V163H148V164V165H164V164ZM164 148H163V164H164H165V148H164Z" fill="#E9F3FF" mask="url(#path-7-inside-4_0_4)"/>
<path d="M50.5596 102.678H130.36C130.924 102.679 131.204 103.356 130.807 103.754L115.043 119.518C114.626 119.935 114.052 120.179 113.44 120.179H33.6396C33.0761 120.179 32.7957 119.501 33.1934 119.103L48.957 103.34C49.3735 102.923 49.9483 102.679 50.5596 102.678ZM49.5723 73.0876C53.7591 73.0876 57.1533 76.4819 57.1533 80.6687V90.5613H50.5596C49.9483 90.5612 49.3735 90.3166 48.957 89.9001L33.1934 74.1365C32.8464 73.7894 33.0174 73.2121 33.4521 73.0876H49.5723ZM76.4609 73.0876H113.772C114.258 73.1591 114.704 73.3832 115.043 73.7224L130.807 89.4861C131.204 89.8836 130.924 90.5612 130.36 90.5613H68.8799V80.6687C68.8799 76.482 72.2743 73.0878 76.4609 73.0876ZM130.36 43.821C130.924 43.8211 131.204 44.4987 130.807 44.8962L115.043 60.6609C114.745 60.9592 114.364 61.1674 113.946 61.2625H76.4609C72.2743 61.2623 68.8799 57.8681 68.8799 53.6814V43.821H130.36ZM50.5596 43.821H57.1533V53.6814C57.1533 57.8682 53.7591 61.2625 49.5723 61.2625H33.3623C32.9923 61.0895 32.8735 60.5657 33.1934 60.2458L48.9424 44.4968C49.3961 44.0612 49.9809 43.8211 50.5596 43.821Z" stroke="#3E97FF" stroke-width="2.00943"/>
<path d="M63.6174 54.3342C64.5813 60.7068 69.5873 65.7062 75.9611 66.6624L79.2072 67.1487L75.716 67.7444C69.4819 68.8064 64.627 73.7392 63.6652 79.9895L63.1447 83.3655L62.5344 79.7708C61.4882 73.6159 56.6653 68.795 50.5099 67.7512L47.1496 67.1809L50.3342 66.6877C56.5875 65.7177 61.5165 60.851 62.5666 54.6106L63.1418 51.1897L63.6174 54.3342Z" fill="#E9F3FF" stroke="#E9F3FF" stroke-width="2"/>
</g>
<defs>
<clipPath id="clip0_0_4">
<rect width="164" height="164" fill="white"/>
</clipPath>
</defs>
</svg>
