<svg width="120" height="120" viewBox="0 0 120 120" fill="none" xmlns="http://www.w3.org/2000/svg">
<g clip-path="url(#clip0_236_29124)">
<mask id="path-1-inside-1_236_29124" fill="white">
<path d="M0 0H16V16H0V0Z"/>
</mask>
<path d="M0 0V-1H-1V0H0ZM0 0V1H16V0V-1H0V0ZM0 16H1V0H0H-1V16H0Z" fill="#E9F3FF" mask="url(#path-1-inside-1_236_29124)"/>
<mask id="path-3-inside-2_236_29124" fill="white">
<path d="M120 0H104V16H120V0Z"/>
</mask>
<path d="M120 0V-1H121V0H120ZM120 0V1H104V0V-1H120V0ZM120 16H119V0H120H121V16H120Z" fill="#E9F3FF" mask="url(#path-3-inside-2_236_29124)"/>
<mask id="path-5-inside-3_236_29124" fill="white">
<path d="M0 120H16V104H0V120Z"/>
</mask>
<path d="M0 120V121H-1V120H0ZM0 120V119H16V120V121H0V120ZM0 104H1V120H0H-1V104H0Z" fill="#E9F3FF" mask="url(#path-5-inside-3_236_29124)"/>
<mask id="path-7-inside-4_236_29124" fill="white">
<path d="M120 120H104V104H120V120Z"/>
</mask>
<path d="M120 120V121H121V120H120ZM120 120V119H104V120V121H120V120ZM120 104H119V120H120H121V104H120Z" fill="#E9F3FF" mask="url(#path-7-inside-4_236_29124)"/>
<path d="M60 28V27V27V28ZM92 60H93V60H92ZM60 92V93V93V92ZM28 60H27V60H28ZM67.334 37.4668L66.887 38.3613L66.9529 38.3943L67.0229 38.4172L67.334 37.4668ZM66.1338 38L66.8409 38.7071L67.0368 38.5112L67.1039 38.2425L66.1338 38ZM66 40.4004H65V40.4005L66 40.4004ZM66.7998 41.7334L66.2446 42.5651L66.3465 42.6332L66.462 42.6746L66.7998 41.7334ZM78.667 67.334L77.7312 66.9815L77.7281 66.9896L77.7253 66.9976L78.667 67.334ZM66.7998 79.2002L66.4562 78.2611L66.4032 78.2805L66.3527 78.3057L66.7998 79.2002ZM66 82.4004H65V82.4004L66 82.4004ZM66.7998 83.4668L66.5575 84.437L66.6768 84.4668H66.7998V83.4668ZM67.334 83.334L67.0328 82.3804L66.8003 82.4538L66.6277 82.626L67.334 83.334ZM82.9336 53.2002L83.8872 52.8991V52.8991L82.9336 53.2002ZM53.2002 37.334L53.4424 36.3638L53.3231 36.334H53.2002V37.334ZM52.667 37.4668L52.9681 38.4204L53.2001 38.3471L53.3725 38.1755L52.667 37.4668ZM37.0664 67.6006L36.1128 67.9017L36.1144 67.9066L37.0664 67.6006ZM52.667 83.2002L53.1138 82.3056L53.0456 82.2715L52.973 82.2482L52.667 83.2002ZM53.8662 82.667L53.16 81.959L52.9633 82.1552L52.896 82.4246L53.8662 82.667ZM54 82.1338H55H54ZM54 80.2666H55V80.2662L54 80.2666ZM53.2002 79.0664L53.7552 78.2346L53.6533 78.1666L53.538 78.1252L53.2002 79.0664ZM41.334 53.4668L42.2698 53.8193L42.2728 53.8112L42.2757 53.8031L41.334 53.4668ZM53.2002 41.6006L53.5438 42.5397L53.5967 42.5203L53.6472 42.4951L53.2002 41.6006ZM57.8662 45.333L56.8857 45.1368L56.8662 45.2339V45.333H57.8662ZM57.8662 48.3994L57.9984 49.3906L58.8662 49.2749V48.3994H57.8662ZM51.334 54.9336H50.334V54.9336L51.334 54.9336ZM59.5996 61.7334L59.7754 60.749L59.7467 60.7439L59.7179 60.7404L59.5996 61.7334ZM64.5332 65.333H65.5332V65.333L64.5332 65.333ZM60.1338 68.9336V69.9336H60.1338L60.1338 68.9336ZM55.0664 65.4658L56.047 65.2697L56.0423 65.2463L56.0365 65.2232L55.0664 65.4658ZM54.1338 64.666L54.1341 63.666H54.1338V64.666ZM51.8662 64.666V63.666H51.8658L51.8662 64.666ZM50.9336 65.5996L49.9336 65.5995V65.5996H50.9336ZM50.9336 65.7334H49.9336V65.8129L49.9461 65.8914L50.9336 65.7334ZM58 72.1328H59V71.273L58.1499 71.1441L58 72.1328ZM59.0664 76.3994L58.87 77.3799L58.9672 77.3994H59.0664V76.3994ZM62.1338 75.333L63.1143 75.5293L63.1338 75.4321V75.333H62.1338ZM62.1338 72.1328L61.9693 71.1464L61.1338 71.2858V72.1328H62.1338ZM68.7998 65.0664L69.7998 65.0664V65.0664H68.7998ZM60.4004 58.1328L60.2682 59.1241L60.2822 59.1258L60.4004 58.1328ZM55.5996 54.666L54.5996 54.666V54.666H55.5996ZM59.5996 51.5996V50.5996H59.5996L59.5996 51.5996ZM64 54.3994L63.0513 54.7156L63.0514 54.7159L64 54.3994ZM68 54H69V53.9098L68.9839 53.8211L68 54ZM62 48.5332H61V49.45L61.9134 49.5294L62 48.5332ZM62 45.333H63V45.3329L62 45.333ZM60.9336 44.2666L61.1299 43.2861L61.0327 43.2666H60.9336V44.2666ZM60 28V29C77.1812 29 91 42.8188 91 60H92H93C93 41.7143 78.2857 27 60 27V28ZM92 60H91C91 77.1812 77.1812 91 60 91V92V93C78.2857 93 93 78.2857 93 60H92ZM60 92V91C42.8188 91 29 77.1812 29 60H28H27C27 78.2857 41.7143 93 60 93V92ZM28 60H29C29 42.8188 42.8188 29 60 29V28V27C41.7143 27 27 41.7143 27 60H28ZM67.334 37.4668L67.781 36.5723C67.2658 36.3148 66.68 36.2879 66.165 36.5254C65.6545 36.7609 65.2986 37.2176 65.1636 37.7575L66.1338 38L67.1039 38.2425C67.1039 38.2425 67.1039 38.2425 67.1039 38.2427C67.1039 38.2428 67.1038 38.243 67.1037 38.2433C67.1036 38.2438 67.1033 38.2446 67.103 38.2455C67.1022 38.2475 67.1011 38.2504 67.0993 38.2539C67.0958 38.2611 67.0902 38.2706 67.0816 38.2812C67.0639 38.3032 67.0373 38.3256 67.0027 38.3416C66.9677 38.3577 66.9338 38.363 66.9075 38.3622C66.8812 38.3613 66.874 38.3548 66.887 38.3613L67.334 37.4668ZM66.1338 38L65.4267 37.2929C64.9549 37.7647 65 38.3468 65 38.5342H66H67C67 38.4621 67.0002 38.4253 67.0013 38.3975C67.0024 38.3713 67.0034 38.3834 66.9973 38.4139C66.99 38.4501 66.974 38.5067 66.9403 38.5703C66.9065 38.6341 66.8684 38.6796 66.8409 38.7071L66.1338 38ZM66 38.5342H65V40.4004H66H67V38.5342H66ZM66 40.4004L65 40.4005C65 40.9117 65.1881 41.3642 65.4088 41.7076C65.6313 42.0535 65.9276 42.3535 66.2446 42.5651L66.7998 41.7334L67.355 40.9017C67.2722 40.8464 67.1686 40.7464 67.0911 40.6259C67.012 40.5028 67 40.4223 67 40.4003L66 40.4004ZM66.7998 41.7334L66.462 42.6746C76.3366 46.2192 81.4012 57.2374 77.7312 66.9815L78.667 67.334L79.6028 67.6865C83.6666 56.8968 78.063 44.7139 67.1377 40.7922L66.7998 41.7334ZM78.667 67.334L77.7253 66.9976C75.8291 72.3067 71.6549 76.3591 66.4562 78.2611L66.7998 79.2002L67.1434 80.1393C72.8778 78.0413 77.5048 73.5611 79.6087 67.6703L78.667 67.334ZM66.7998 79.2002L66.3527 78.3057C65.9643 78.4999 65.6024 78.7796 65.348 79.1934C65.0944 79.606 65 80.0666 65 80.5342H66H67C67 80.335 67.0388 80.2619 67.0518 80.2408C67.064 80.221 67.102 80.1671 67.2469 80.0947L66.7998 79.2002ZM66 80.5342H65V82.4004H66H67V80.5342H66ZM66 82.4004L65 82.4004C65 82.8324 65.109 83.2838 65.3912 83.6718C65.6789 84.0673 66.0914 84.3206 66.5575 84.437L66.7998 83.4668L67.0421 82.4966C67.0045 82.4872 66.9911 82.4781 66.9923 82.4789C66.9945 82.4803 67.0019 82.4861 67.0087 82.4955C67.0243 82.5169 67 82.5017 67 82.4003L66 82.4004ZM66.7998 83.4668V84.4668C66.86 84.4668 67.0379 84.4687 67.23 84.4369C67.3989 84.409 67.7512 84.3303 68.0402 84.0419L67.334 83.334L66.6277 82.626C66.712 82.5419 66.7938 82.5019 66.8359 82.4847C66.8583 82.4756 66.8757 82.4704 66.886 82.4677C66.8964 82.465 66.9026 82.4639 66.9038 82.4637C66.9048 82.4635 66.8966 82.4648 66.8762 82.4658C66.8554 82.4667 66.8345 82.4668 66.7998 82.4668V83.4668ZM67.334 83.334L67.6351 84.2876C80.8326 80.1197 88.052 66.0876 83.8872 52.8991L82.9336 53.2002L81.98 53.5013C85.8151 65.6457 79.168 78.548 67.0328 82.3804L67.334 83.334ZM82.9336 53.2002L83.8872 52.8991C81.3878 44.9845 75.2768 39.0143 67.645 36.5164L67.334 37.4668L67.0229 38.4172C74.057 40.7194 79.6794 46.2162 81.98 53.5013L82.9336 53.2002ZM53.2002 37.334V36.334C53.1395 36.334 52.9619 36.3322 52.7699 36.364C52.6007 36.3921 52.2498 36.4711 51.9615 36.7581L52.667 37.4668L53.3725 38.1755C53.2887 38.2589 53.2075 38.2988 53.1654 38.316C53.143 38.3251 53.1257 38.3303 53.1154 38.333C53.1049 38.3358 53.0986 38.3368 53.0974 38.337C53.0962 38.3372 53.1042 38.3359 53.1245 38.335C53.145 38.3341 53.1658 38.334 53.2002 38.334V37.334ZM52.667 37.4668L52.3659 36.5132C39.1682 40.6809 31.9479 54.713 36.1128 67.9017L37.0664 67.6006L38.02 67.2995C34.1849 55.1551 40.8327 42.2527 52.9681 38.4204L52.667 37.4668ZM37.0664 67.6006L36.1144 67.9066C38.6131 75.68 44.5877 81.6536 52.361 84.1522L52.667 83.2002L52.973 82.2482C45.8133 79.9468 40.3198 74.4541 38.0184 67.2946L37.0664 67.6006ZM52.667 83.2002L52.2202 84.0948C52.7351 84.352 53.3207 84.3791 53.8358 84.1414C54.3463 83.9057 54.7016 83.4488 54.8364 82.9093L53.8662 82.667L52.896 82.4246C52.896 82.4247 52.8971 82.4206 52.9006 82.4134C52.904 82.4063 52.9097 82.3968 52.9183 82.3862C52.936 82.3641 52.9627 82.3416 52.9975 82.3255C53.0327 82.3093 53.0669 82.3039 53.0933 82.3048C53.1197 82.3056 53.1269 82.3121 53.1138 82.3056L52.667 83.2002ZM53.8662 82.667L54.5725 83.3749C55.0452 82.9034 55 82.3208 55 82.1338H54H53C53 82.2058 52.9998 82.2424 52.9987 82.2702C52.9976 82.2962 52.9966 82.2839 53.0028 82.2532C53.0101 82.2168 53.0263 82.1599 53.0602 82.0961C53.0941 82.0322 53.1324 81.9866 53.16 81.959L53.8662 82.667ZM54 82.1338H55V80.2666H54H53V82.1338H54ZM54 80.2666L55 80.2662C54.9998 79.7716 54.7718 79.3359 54.5723 79.0476C54.3576 78.7372 54.0697 78.4444 53.7552 78.2346L53.2002 79.0664L52.6452 79.8983C52.7306 79.9552 52.8425 80.0625 52.9277 80.1856C52.968 80.2439 52.9909 80.2895 53.0015 80.3162C53.0135 80.3466 53 80.3275 53 80.267L54 80.2666ZM53.2002 79.0664L53.538 78.1252C43.6634 74.5806 38.5998 63.5634 42.2698 53.8193L41.334 53.4668L40.3982 53.1143C36.3344 63.9039 41.937 76.0859 52.8623 80.0076L53.2002 79.0664ZM41.334 53.4668L42.2757 53.8031C44.1719 48.494 48.3452 44.4417 53.5438 42.5397L53.2002 41.6006L52.8566 40.6615C47.1222 42.7595 42.4961 47.2398 40.3922 53.1304L41.334 53.4668ZM53.2002 41.6006L53.6472 42.4951C54.0357 42.301 54.3976 42.0213 54.6521 41.6074C54.9057 41.1948 55 40.7342 55 40.2666H54H53C53 40.4659 52.9611 40.539 52.9482 40.5601C52.9361 40.5798 52.8981 40.6336 52.7532 40.7061L53.2002 41.6006ZM54 40.2666H55V38.4004H54H53V40.2666H54ZM54 38.4004H55C55 37.9685 54.8911 37.5171 54.6089 37.129C54.3212 36.7333 53.9085 36.4801 53.4424 36.3638L53.2002 37.334L52.958 38.3042C52.9957 38.3136 53.009 38.3227 53.0078 38.3219C53.0056 38.3205 52.9982 38.3147 52.9913 38.3052C52.9757 38.2837 53 38.2989 53 38.4004H54ZM58.9336 44.2666V43.2666C57.7648 43.2666 57.0775 44.178 56.8857 45.1368L57.8662 45.333L58.8468 45.5292C58.8846 45.3405 58.9446 45.2693 58.9566 45.2573C58.9614 45.2525 58.9579 45.2572 58.9459 45.2622C58.9337 45.2673 58.9272 45.2666 58.9336 45.2666V44.2666ZM57.8662 45.333H56.8662V48.3994H57.8662H58.8662V45.333H57.8662ZM57.8662 48.3994L57.734 47.4082C53.3442 47.9938 50.334 50.9984 50.334 54.9336H51.334H52.334C52.334 52.2021 54.3887 49.8722 57.9984 49.3906L57.8662 48.3994ZM51.334 54.9336L50.334 54.9336C50.3341 57.3617 51.086 59.2212 52.7517 60.5215C54.3421 61.763 56.6385 62.3878 59.4813 62.7264L59.5996 61.7334L59.7179 60.7404C56.9613 60.4121 55.1249 59.8368 53.9824 58.945C52.9153 58.112 52.3341 56.9051 52.334 54.9336L51.334 54.9336ZM59.5996 61.7334L59.4239 62.7178C61.2935 63.0516 62.3197 63.3913 62.8836 63.7958C63.1371 63.9776 63.2816 64.1631 63.3731 64.3696C63.4701 64.5884 63.5332 64.8892 63.5332 65.333L64.5332 65.333L65.5332 65.333C65.5332 64.7101 65.4462 64.111 65.2015 63.559C64.9513 62.9947 64.5624 62.5386 64.0492 62.1706C63.0796 61.4752 61.6391 61.0817 59.7754 60.749L59.5996 61.7334ZM64.5332 65.333H63.5332C63.5332 66.7263 62.3232 67.9335 60.1338 67.9336L60.1338 68.9336L60.1338 69.9336C63.0104 69.9335 65.5332 68.2065 65.5332 65.333H64.5332ZM60.1338 68.9336V67.9336C58.5297 67.9336 57.6134 67.593 57.0687 67.164C56.5349 66.7438 56.2189 66.129 56.047 65.2697L55.0664 65.4658L54.0858 65.6619C54.314 66.8026 54.7981 67.9218 55.8314 68.7354C56.8536 69.5403 58.271 69.9336 60.1338 69.9336V68.9336ZM55.0664 65.4658L56.0365 65.2232C55.7971 64.2657 55.0131 63.6663 54.1341 63.666L54.1338 64.666L54.1335 65.666C54.1097 65.666 54.0885 65.6576 54.075 65.6468C54.0688 65.6418 54.0688 65.6399 54.0726 65.646C54.0765 65.6522 54.0869 65.6709 54.0963 65.7084L55.0664 65.4658ZM54.1338 64.666V63.666H51.8662V64.666V65.666H54.1338V64.666ZM51.8662 64.666L51.8658 63.666C50.7802 63.6665 49.9337 64.5149 49.9336 65.5995L50.9336 65.5996L51.9336 65.5997C51.9336 65.5922 51.9348 65.5956 51.9306 65.6059C51.9265 65.616 51.919 65.6282 51.9076 65.6397C51.8962 65.6511 51.8839 65.6587 51.8736 65.6629C51.863 65.6672 51.8594 65.666 51.8666 65.666L51.8662 64.666ZM50.9336 65.5996H49.9336V65.7334H50.9336H51.9336V65.5996H50.9336ZM50.9336 65.7334L49.9461 65.8914C50.2405 67.7314 50.9897 69.3779 52.3256 70.6556C53.658 71.9299 55.4982 72.765 57.8501 73.1215L58 72.1328L58.1499 71.1441C56.102 70.8337 54.6756 70.1356 53.708 69.2102C52.7439 68.2882 52.1599 67.0684 51.921 65.5754L50.9336 65.7334ZM58 72.1328H57V75.333H58H59V72.1328H58ZM58 75.333H57C57 76.5026 57.9133 77.1883 58.87 77.3799L59.0664 76.3994L59.2628 75.4189C59.0739 75.381 59.0025 75.321 58.9904 75.3089C58.9855 75.3041 58.9903 75.3076 58.9954 75.3198C59.0007 75.3323 59 75.339 59 75.333H58ZM59.0664 76.3994V77.3994H61.0664V76.3994V75.3994H59.0664V76.3994ZM61.0664 76.3994V77.3994C62.2354 77.3994 62.9225 76.4875 63.1143 75.5293L62.1338 75.333L61.1532 75.1367C61.1155 75.3253 61.0555 75.3966 61.0434 75.4087C61.0385 75.4135 61.042 75.4088 61.054 75.4038C61.0662 75.3987 61.0727 75.3994 61.0664 75.3994V76.3994ZM62.1338 75.333H63.1338V72.1328H62.1338H61.1338V75.333H62.1338ZM62.1338 72.1328L62.2983 73.1192C66.6827 72.3881 69.7997 69.2477 69.7998 65.0664L68.7998 65.0664L67.7998 65.0664C67.7997 68.0848 65.5844 70.5436 61.9693 71.1464L62.1338 72.1328ZM68.7998 65.0664H69.7998C69.7998 62.5074 69.0156 60.607 67.3061 59.3043C65.6804 58.0653 63.3488 57.4767 60.5186 57.1398L60.4004 58.1328L60.2822 59.1258C63.0518 59.4555 64.92 60.0004 66.0939 60.895C67.1842 61.7258 67.7998 62.9589 67.7998 65.0664H68.7998ZM60.4004 58.1328L60.5326 57.1416C58.5596 56.8785 57.6005 56.5036 57.1291 56.1221C56.757 55.821 56.5996 55.4429 56.5996 54.666H55.5996H54.5996C54.5996 55.756 54.8427 56.8446 55.8709 57.6768C56.7999 58.4286 58.2412 58.8537 60.2682 59.124L60.4004 58.1328ZM55.5996 54.666L56.5996 54.6661C56.5997 53.9912 56.8283 53.5307 57.2245 53.2138C57.6523 52.8717 58.3996 52.5997 59.5997 52.5996L59.5996 51.5996L59.5996 50.5996C58.1335 50.5997 56.8809 50.9276 55.9753 51.6519C55.038 52.4016 54.5997 53.4742 54.5996 54.666L55.5996 54.666ZM59.5996 51.5996V52.5996C60.7022 52.5996 61.4231 52.7858 61.9181 53.0965C62.3909 53.3933 62.7713 53.8755 63.0513 54.7156L64 54.3994L64.9487 54.0832C64.5622 52.9236 63.9423 52.0058 62.9815 51.4027C62.0429 50.8134 60.8969 50.5996 59.5996 50.5996V51.5996ZM64 54.3994L63.0514 54.7159C63.328 55.5449 64.1256 56.0664 64.9336 56.0664V55.0664V54.0664C64.9445 54.0664 64.9491 54.0681 64.948 54.0678C64.9468 54.0674 64.9438 54.0661 64.9404 54.0638C64.9372 54.0615 64.9369 54.0605 64.9385 54.0626C64.9405 54.0652 64.9449 54.0718 64.9486 54.083L64 54.3994ZM64.9336 55.0664V56.0664H67.0664V55.0664V54.0664H64.9336V55.0664ZM67.0664 55.0664V56.0664C68.1524 56.0664 69 55.218 69 54.1328H68H67C67 54.1401 66.9988 54.1366 67.0031 54.1262C67.0072 54.1161 67.0147 54.1039 67.0261 54.0925C67.0374 54.0811 67.0496 54.0736 67.0598 54.0695C67.0702 54.0652 67.0737 54.0664 67.0664 54.0664V55.0664ZM68 54.1328H69V54H68H67V54.1328H68ZM68 54L68.9839 53.8211C68.3714 50.4529 65.6111 47.8433 62.0866 47.537L62 48.5332L61.9134 49.5294C64.522 49.7562 66.5618 51.6802 67.0161 54.1789L68 54ZM62 48.5332H63V45.333H62H61V48.5332H62ZM62 45.333L63 45.3329C62.9998 44.1631 62.0868 43.4777 61.1299 43.2861L60.9336 44.2666L60.7372 45.2471C60.9263 45.285 60.9977 45.345 61.0096 45.357C61.0144 45.3618 61.0096 45.3582 61.0045 45.346C60.9993 45.3336 61 45.3269 61 45.3331L62 45.333ZM60.9336 44.2666V43.2666H58.9336V44.2666V45.2666H60.9336V44.2666Z" fill="#3E97FF"/>
</g>
<defs>
<clipPath id="clip0_236_29124">
<rect width="120" height="120" fill="white"/>
</clipPath>
</defs>
</svg>
