<svg width="120" height="120" viewBox="0 0 120 120" fill="none" xmlns="http://www.w3.org/2000/svg">
<g clip-path="url(#clip0_236_29086)">
<mask id="path-1-inside-1_236_29086" fill="white">
<path d="M0 0H16V16H0V0Z"/>
</mask>
<path d="M0 0V-1H-1V0H0ZM0 0V1H16V0V-1H0V0ZM0 16H1V0H0H-1V16H0Z" fill="#E9F3FF" mask="url(#path-1-inside-1_236_29086)"/>
<mask id="path-3-inside-2_236_29086" fill="white">
<path d="M120 0H104V16H120V0Z"/>
</mask>
<path d="M120 0V-1H121V0H120ZM120 0V1H104V0V-1H120V0ZM120 16H119V0H120H121V16H120Z" fill="#E9F3FF" mask="url(#path-3-inside-2_236_29086)"/>
<mask id="path-5-inside-3_236_29086" fill="white">
<path d="M0 120H16V104H0V120Z"/>
</mask>
<path d="M0 120V121H-1V120H0ZM0 120V119H16V120V121H0V120ZM0 104H1V120H0H-1V104H0Z" fill="#E9F3FF" mask="url(#path-5-inside-3_236_29086)"/>
<mask id="path-7-inside-4_236_29086" fill="white">
<path d="M120 120H104V104H120V120Z"/>
</mask>
<path d="M120 120V121H121V120H120ZM120 120V119H104V120V121H120V120ZM120 104H119V120H120H121V104H120Z" fill="#E9F3FF" mask="url(#path-7-inside-4_236_29086)"/>
<path d="M39.3265 72.6355C39.6961 72.2659 40.2043 72.0503 40.7432 72.0503H89.621C90.5142 72.0503 90.9608 73.1283 90.3294 73.7596L80.6739 83.4151C80.3044 83.7847 79.7962 84.0002 79.2572 84.0002H30.3794C29.4863 84.0002 29.0397 82.9223 29.6711 82.2909L39.3265 72.6355Z" stroke="#3E97FF" stroke-width="2"/>
<path d="M39.3265 36.5849C39.7115 36.2153 40.2197 35.9998 40.7432 35.9998H89.621C90.5142 35.9998 90.9608 37.0777 90.3294 37.7091L80.6739 47.3645C80.3044 47.7341 79.7962 47.9497 79.2572 47.9497H30.3794C29.4863 47.9497 29.0397 46.8717 29.6711 46.2404L39.3265 36.5849Z" stroke="#3E97FF" stroke-width="2"/>
<path d="M80.6739 54.4948C80.3044 54.1253 79.7962 53.9097 79.2572 53.9097H30.3794C29.4863 53.9097 29.0397 54.9876 29.6711 55.619L39.3265 65.2744C39.6961 65.644 40.2043 65.8596 40.7432 65.8596H89.621C90.5142 65.8596 90.9608 64.7817 90.3294 64.1503L80.6739 54.4948Z" stroke="#3E97FF" stroke-width="2"/>
</g>
<defs>
<clipPath id="clip0_236_29086">
<rect width="120" height="120" fill="white"/>
</clipPath>
</defs>
</svg>
