<svg width="272" height="48" viewBox="0 0 272 48" fill="none" xmlns="http://www.w3.org/2000/svg">
<path d="M7.57812 32.7002H40.165V32.7012L33.7275 39.1387C33.6052 39.2609 33.4357 39.3329 33.2549 39.333H0.667969L0.666992 39.332H0.668945L7.10547 32.8945C7.22775 32.7724 7.39733 32.7003 7.57812 32.7002ZM6.3291 20.6172C8.36446 20.6172 10.0146 22.2674 10.0146 24.3027V27.2393H7.57812C7.39729 27.2391 7.22776 27.1671 7.10547 27.0449L0.678711 20.6172H6.3291ZM19.001 20.6172H33.3623C33.5024 20.6399 33.6304 20.7037 33.7275 20.8008L40.165 27.2383V27.2393H15.3154V24.3027C15.3154 22.2674 16.9657 20.6173 19.001 20.6172ZM40.165 8.66699V8.66797L33.7275 15.1055C33.6459 15.187 33.5424 15.2449 33.4287 15.2754H19.001C16.9658 15.2753 15.3157 13.6259 15.3154 11.5908V8.66699H40.165ZM7.57812 8.66699H10.0146V11.5908C10.0144 13.626 8.36431 15.2754 6.3291 15.2754H0.692383L7.0957 8.87109C7.2363 8.73612 7.41236 8.66711 7.57812 8.66699Z" fill="#3E97FF" stroke="#3E97FF" stroke-width="1.33333"/>
<path d="M12.4474 10.5565C12.5001 10.2431 12.9518 10.2468 12.9993 10.5611L13.314 12.642C13.6808 15.0671 15.5858 16.9697 18.0113 17.3335L20.1324 17.6516C20.4466 17.6987 20.451 18.1501 20.1379 18.2034L17.9191 18.5814C15.5468 18.9855 13.6995 20.8627 13.3336 23.2411L13.0002 25.4076C12.952 25.7211 12.5016 25.7246 12.4485 25.412L12.0655 23.1583C11.6675 20.8161 9.83221 18.9815 7.48986 18.5843L5.33524 18.2189C5.02271 18.1659 5.02588 17.7158 5.33913 17.6672L7.4236 17.3439C9.80324 16.9748 11.6789 15.1231 12.0785 12.7484L12.4474 10.5565Z" fill="#E9F3FF"/>
<path d="M247.948 36.9615L257.915 10.9271H261.225L271.119 36.9615H267.957L261.597 20.0763C261.424 19.6052 261.225 19.0597 261.002 18.4398C260.804 17.7952 260.581 17.1381 260.333 16.4687C260.11 15.7744 259.887 15.105 259.663 14.4603C259.465 13.8156 259.279 13.2454 259.106 12.7495H259.849C259.651 13.3693 259.44 14.0016 259.217 14.6463C259.019 15.2661 258.808 15.8984 258.585 16.543C258.362 17.1629 258.139 17.7828 257.915 18.4026C257.692 19.0225 257.469 19.6424 257.246 20.2622L250.923 36.9615H247.948ZM252.188 29.7834L253.266 26.9568H265.577L266.767 29.7834H252.188Z" fill="white"/>
<path d="M234.801 36.9615L224.722 10.9271H227.995L234.466 27.8866C234.764 28.6552 235.024 29.3371 235.247 29.9322C235.47 30.5272 235.669 31.0975 235.842 31.643C236.041 32.1637 236.227 32.6844 236.4 33.2051C236.574 33.7258 236.76 34.296 236.958 34.9159L235.991 34.9531C236.239 34.1101 236.475 33.329 236.698 32.61C236.946 31.8909 237.194 31.1595 237.442 30.4157C237.714 29.647 238.049 28.7544 238.446 27.7378L244.88 10.9271H248.153L237.776 36.9615H234.801Z" fill="white"/>
<path d="M209.552 37.3333C207.717 37.3333 206.019 37.011 204.457 36.3663C202.919 35.6969 201.568 34.7671 200.403 33.5769C199.262 32.3868 198.37 30.9859 197.725 29.3743C197.105 27.7378 196.795 25.9526 196.795 24.0186C196.795 22.0846 197.105 20.3118 197.725 18.7001C198.37 17.0637 199.262 15.6504 200.403 14.4603C201.568 13.2453 202.919 12.3155 204.457 11.6709C206.019 11.0014 207.717 10.6667 209.552 10.6667C211.412 10.6667 213.11 11.0014 214.647 11.6709C216.209 12.3155 217.561 13.2453 218.701 14.4603C219.867 15.6504 220.759 17.0637 221.379 18.7001C222.024 20.3118 222.346 22.0846 222.346 24.0186C222.346 25.9278 222.024 27.7006 221.379 29.3371C220.759 30.9487 219.867 32.362 218.701 33.5769C217.561 34.7671 216.209 35.6969 214.647 36.3663C213.11 37.011 211.412 37.3333 209.552 37.3333ZM209.552 34.4696C210.965 34.4696 212.267 34.2216 213.457 33.7257C214.672 33.205 215.713 32.4736 216.581 31.5314C217.449 30.5892 218.118 29.4858 218.59 28.2213C219.085 26.932 219.333 25.5311 219.333 24.0186C219.333 22.4813 219.085 21.0804 218.59 19.8159C218.118 18.5266 217.449 17.4108 216.581 16.4686C215.713 15.5264 214.672 14.795 213.457 14.2743C212.267 13.7536 210.965 13.4933 209.552 13.4933C208.139 13.4933 206.825 13.7536 205.61 14.2743C204.419 14.795 203.39 15.5264 202.523 16.4686C201.655 17.4108 200.985 18.5266 200.514 19.8159C200.043 21.0804 199.808 22.4813 199.808 24.0186C199.808 25.5311 200.043 26.932 200.514 28.2213C200.985 29.4858 201.655 30.5892 202.523 31.5314C203.39 32.4736 204.419 33.205 205.61 33.7257C206.825 34.2216 208.139 34.4696 209.552 34.4696Z" fill="white"/>
<path d="M168.785 36.9615V10.9271H171.426L188.46 33.4654L187.939 34.1349C187.865 33.7381 187.803 33.1431 187.753 32.3496C187.728 31.5562 187.691 30.6636 187.642 29.6718C187.617 28.6552 187.592 27.6015 187.567 26.5105C187.542 25.4195 187.518 24.3534 187.493 23.312C187.493 22.2706 187.493 21.3284 187.493 20.4854V10.9271H190.394V36.9615H187.679L170.719 14.7206L171.166 13.9396C171.24 14.9314 171.302 15.9108 171.352 16.8778C171.426 17.8448 171.476 18.7746 171.5 19.6672C171.55 20.5598 171.587 21.378 171.612 22.1218C171.637 22.8657 171.649 23.4979 171.649 24.0186C171.674 24.5393 171.686 24.9112 171.686 25.1344V36.9615H168.785Z" fill="white"/>
<path d="M145.777 36.9615V10.9271H161.547V13.7536H148.678V34.1349H161.472V36.9615H145.777ZM147.116 24.9856V22.159H159.464V24.9856H147.116Z" fill="white"/>
<path d="M121.222 28.9652L121.111 25.5063L135.839 10.9271H139.744L121.222 28.9652ZM119.028 36.9615V10.9271H121.929V36.9615H119.028ZM136.471 36.9615L126.02 23.0516L128.14 21.192L140.116 36.9615H136.471Z" fill="white"/>
<path d="M90.3585 36.9615L100.326 10.9271H103.636L113.529 36.9615H110.368L104.008 20.0763C103.834 19.6052 103.636 19.0597 103.413 18.4398C103.215 17.7952 102.991 17.1381 102.743 16.4687C102.52 15.7744 102.297 15.105 102.074 14.4603C101.876 13.8156 101.69 13.2454 101.516 12.7495H102.26C102.062 13.3693 101.851 14.0016 101.628 14.6463C101.429 15.2661 101.219 15.8984 100.995 16.543C100.772 17.1629 100.549 17.7828 100.326 18.4026C100.103 19.0225 99.8797 19.6424 99.6565 20.2622L93.3339 36.9615H90.3585ZM94.5984 29.7834L95.677 26.9568H107.988L109.178 29.7834H94.5984Z" fill="white"/>
<path d="M78.8246 36.9615V13.7536H71.3862V10.9271H89.4615V13.7536H81.7255V36.9615H78.8246Z" fill="white"/>
<path d="M58.317 37.3333C57.0029 37.3333 55.7632 37.1474 54.5978 36.7755C53.4325 36.4035 52.3663 35.8457 51.3993 35.1018C50.4323 34.358 49.5769 33.4406 48.8331 32.3496L50.8414 30.1181C52.0068 31.7793 53.1969 32.9447 54.4119 33.6141C55.6516 34.2836 57.0401 34.6183 58.5774 34.6183C59.6931 34.6183 60.7097 34.4324 61.6271 34.0604C62.5445 33.6885 63.2636 33.1678 63.7843 32.4984C64.3049 31.8289 64.5653 31.0603 64.5653 30.1925C64.5653 29.6222 64.4661 29.1139 64.2677 28.6676C64.0942 28.2213 63.8214 27.8246 63.4495 27.4775C63.0776 27.1303 62.6189 26.8204 62.0734 26.5477C61.5279 26.2749 60.8957 26.027 60.1766 25.8038C59.4824 25.5807 58.7013 25.3575 57.8335 25.1344C56.569 24.8368 55.4532 24.4897 54.4863 24.093C53.5441 23.6715 52.7382 23.1632 52.0688 22.5681C51.4241 21.973 50.9282 21.2912 50.5811 20.5226C50.2588 19.7291 50.0976 18.7993 50.0976 17.7332C50.0976 16.7166 50.3084 15.7744 50.7299 14.9066C51.1762 14.0387 51.7836 13.2949 52.5523 12.675C53.3209 12.0304 54.2259 11.5345 55.2673 11.1874C56.3087 10.8402 57.4244 10.6667 58.6146 10.6667C59.9535 10.6667 61.1436 10.8526 62.185 11.2246C63.2512 11.5717 64.1934 12.0924 65.0116 12.7866C65.8298 13.4809 66.5365 14.3115 67.1315 15.2785L65.086 17.2868C64.5653 16.4686 63.9702 15.762 63.3008 15.1669C62.6561 14.5718 61.9371 14.1255 61.1436 13.828C60.375 13.5057 59.5196 13.3445 58.5774 13.3445C57.4864 13.3445 56.5194 13.5305 55.6764 13.9024C54.8582 14.2743 54.2135 14.795 53.7424 15.4644C53.2713 16.1091 53.0358 16.8529 53.0358 17.696C53.0358 18.3158 53.1473 18.8737 53.3705 19.3696C53.5936 19.8407 53.9408 20.2622 54.4119 20.6341C54.9078 20.9813 55.54 21.3036 56.3087 21.6011C57.1021 21.8739 58.0443 22.1342 59.1353 22.3822C60.4246 22.6797 61.5775 23.0392 62.5941 23.4607C63.6355 23.8822 64.5157 24.3905 65.2347 24.9856C65.9786 25.5559 66.5365 26.2253 66.9084 26.994C67.3051 27.7626 67.5035 28.6428 67.5035 29.6346C67.5035 31.1719 67.1191 32.5232 66.3505 33.6885C65.5819 34.8291 64.5033 35.7217 63.1148 36.3663C61.7511 37.011 60.1518 37.3333 58.317 37.3333Z" fill="white"/>
</svg>
