<svg width="40" height="40" viewBox="0 0 40 40" fill="none" xmlns="http://www.w3.org/2000/svg">
<rect x="0.5" y="0.5" width="39" height="39" stroke="#E9F3FF" stroke-dasharray="16 16"/>
<path d="M18.6344 8.00002C20.5338 7.99689 22.4065 8.44701 24.0971 9.31283C24.4531 9.49541 24.7964 9.69435 25.1305 9.90978C26.8179 10.9975 28.2053 12.4913 29.1654 14.2544C30.1256 16.0175 30.6278 17.9934 30.6261 20.001C30.6262 22.1989 30.0228 24.3547 28.8814 26.2331C27.7414 28.1091 26.1085 29.6363 24.1607 30.6487L23.7977 19.833V19.718C23.8252 19.7053 23.8515 19.69 23.8762 19.6724C24.2979 19.4186 24.5901 18.8416 24.5901 18.1752C24.5904 18.0959 24.5861 18.0167 24.5773 17.9379C24.5042 17.2478 24.119 16.6999 23.6242 16.5648C23.5513 16.0839 23.3811 15.6229 23.1239 15.2101C23.1543 15.2067 23.1845 15.2016 23.2142 15.1948C23.229 15.1913 23.2436 15.1874 23.2582 15.1832C23.302 15.1704 23.3446 15.1541 23.3857 15.1341C23.4131 15.1208 23.4397 15.1058 23.4656 15.0894C23.5042 15.0647 23.5406 15.0368 23.5743 15.0061C23.5856 14.9959 23.5965 14.9852 23.6071 14.9744C23.6284 14.9526 23.6485 14.9296 23.6672 14.9056C23.6859 14.8815 23.7032 14.8564 23.7191 14.8303C24.1033 14.2625 24.5929 13.6781 25.0323 12.886C25.1567 12.6618 25.277 12.421 25.3898 12.1592L25.4117 12.1082C25.4429 12.0409 25.4564 11.9668 25.4513 11.893C25.4508 11.8861 25.4503 11.8792 25.4495 11.8723C25.4486 11.8649 25.4473 11.8576 25.4461 11.8502C25.4426 11.8295 25.4379 11.809 25.4315 11.7891C25.4156 11.7395 25.3911 11.6929 25.3587 11.6516C25.332 11.6125 25.2977 11.579 25.2582 11.553C25.1708 11.4919 25.0645 11.464 24.9585 11.4744C24.8523 11.4847 24.7533 11.5328 24.6794 11.6097C24.2398 12.0283 23.7645 12.2569 23.3459 12.5047C23.1068 12.6456 22.8867 12.7924 22.7039 12.9847C22.65 13.0408 22.599 13.1006 22.5516 13.1653C22.5115 13.0774 22.461 12.9945 22.4009 12.9188C22.2602 12.7405 22.0695 12.6082 21.8532 12.539C21.7646 12.509 21.673 12.4916 21.5811 12.4862C21.415 12.4761 21.2476 12.5058 21.0933 12.5748C21.024 12.3415 20.8813 12.1367 20.6862 11.9911C20.5153 11.8634 20.3123 11.787 20.1009 11.77C20.0951 11.7695 20.0892 11.7693 20.0834 11.7689C20.0591 11.7673 20.0346 11.7664 20.0101 11.7664H20.0082C19.7645 11.7664 19.5273 11.8451 19.332 11.9909C19.1369 12.1366 18.9941 12.3414 18.9248 12.5748C18.8263 12.5333 18.723 12.5067 18.6181 12.4949C18.4832 12.4796 18.3456 12.4894 18.2125 12.5244C17.976 12.5865 17.7667 12.7251 17.6173 12.9188C17.5555 12.9934 17.5046 13.0765 17.4663 13.1655C16.9384 12.4457 15.9845 12.2208 15.1909 11.4692C15.1629 11.4378 15.129 11.4123 15.0912 11.3941C15.0533 11.3759 15.0122 11.3653 14.9703 11.3631C14.9284 11.3609 14.8865 11.3672 14.8469 11.3813C14.8074 11.3954 14.771 11.4172 14.7399 11.4455C14.7235 11.4595 14.7087 11.4754 14.6961 11.4929C14.6278 11.5849 14.5853 11.6935 14.5731 11.8074C14.5609 11.9214 14.5794 12.0366 14.6267 12.141C15.1398 13.3515 15.8099 14.0964 16.3065 14.8303C16.3696 14.9349 16.4559 15.0237 16.5588 15.0896C16.6532 15.15 16.7594 15.1892 16.8701 15.2058C16.8794 15.2073 16.8887 15.2089 16.8981 15.2101C16.6428 15.6239 16.4727 16.0844 16.3978 16.5648C15.8482 16.7145 15.4319 17.3773 15.4319 18.1752C15.4319 18.8836 15.7624 19.4898 16.2243 19.718L15.9633 27.4519L15.8099 32H11.5375C10.9639 31.9995 10.4139 31.7714 10.0082 31.3658C9.60261 30.9602 9.37453 30.4101 9.37402 29.8365V10.1635C9.37453 9.58987 9.60261 9.03985 10.0082 8.63423C10.4139 8.22862 10.9639 8.0005 11.5375 8.00002H18.6344ZM14.2161 23.8778C14.0761 23.8552 13.9328 23.8891 13.8178 23.9721L12.465 24.947C12.4611 24.9499 12.4574 24.9531 12.4536 24.9561C12.3832 25.0082 12.3335 25.0836 12.3142 25.1694C12.294 25.259 12.3084 25.353 12.3545 25.4325C12.4006 25.512 12.4749 25.5712 12.5627 25.5983C12.6506 25.6254 12.7455 25.6185 12.8284 25.5787L14.3493 24.8941C14.3966 24.8729 14.4403 24.8447 14.4794 24.811C14.4816 24.8091 14.4838 24.8073 14.4859 24.8054C14.4965 24.796 14.5068 24.7862 14.5167 24.7758C14.5197 24.7728 14.5225 24.7696 14.5254 24.7664C14.5265 24.7653 14.5277 24.7643 14.5287 24.7632C14.5365 24.7545 14.5437 24.7454 14.5509 24.7363C14.5524 24.7345 14.5542 24.7329 14.5556 24.7311C14.5574 24.7288 14.5587 24.7261 14.5604 24.7238C14.5675 24.7142 14.5745 24.7046 14.5809 24.6945C14.5846 24.6888 14.588 24.6829 14.5914 24.6771C14.5956 24.67 14.5995 24.6628 14.6034 24.6555C14.6082 24.6463 14.6128 24.6371 14.6171 24.6277C14.6192 24.623 14.6213 24.6182 14.6233 24.6134C14.6329 24.5908 14.6416 24.5679 14.6479 24.5441C14.6661 24.4762 14.6706 24.4053 14.6613 24.3356C14.652 24.266 14.629 24.199 14.5937 24.1382C14.5846 24.1237 14.5756 24.1072 14.5647 24.0926C14.4816 23.9776 14.3561 23.9003 14.2161 23.8778ZM25.771 23.8745C25.7013 23.8651 25.6304 23.8698 25.5625 23.8879C25.4946 23.9061 25.431 23.9375 25.3753 23.9805C25.3197 24.0234 25.273 24.077 25.2382 24.1381L25.2107 24.191C25.1536 24.3198 25.1499 24.4661 25.2006 24.5975C25.229 24.6713 25.2738 24.7365 25.3299 24.7901C25.3411 24.8009 25.3528 24.8112 25.365 24.821C25.3944 24.8445 25.4263 24.865 25.4605 24.8819C25.4674 24.8853 25.474 24.8892 25.4811 24.8923L27.0019 25.5769C27.0845 25.6138 27.1779 25.6187 27.2639 25.5907C27.2738 25.5875 27.2834 25.5836 27.2929 25.5796C27.2964 25.5781 27.2998 25.5764 27.3033 25.5748C27.3098 25.5718 27.3164 25.5687 27.3227 25.5654C27.3255 25.5639 27.3282 25.5623 27.3309 25.5607C27.3375 25.557 27.344 25.5531 27.3503 25.549C27.3531 25.5471 27.3558 25.5453 27.3585 25.5434C27.3653 25.5388 27.3719 25.5339 27.3783 25.5288C27.3799 25.5276 27.3813 25.5263 27.3828 25.5251C27.3891 25.5199 27.3952 25.5144 27.4012 25.5088C27.4035 25.5066 27.406 25.5044 27.4083 25.5021C27.4143 25.4961 27.4202 25.4899 27.4258 25.4835C27.4269 25.4822 27.428 25.4809 27.4291 25.4796C27.4362 25.4713 27.443 25.4628 27.4493 25.4539L27.4693 25.4254C27.4749 25.4156 27.4801 25.4056 27.4848 25.3954C27.5129 25.3343 27.5235 25.2666 27.5156 25.1998C27.5143 25.1887 27.5125 25.1776 27.5101 25.1665C27.4959 25.1003 27.4638 25.0397 27.4177 24.9912C27.4101 24.9831 27.4019 24.9754 27.3935 24.9681C27.385 24.9607 27.3763 24.9536 27.3671 24.947L26.0142 23.9721L25.9685 23.9428C25.9079 23.9073 25.8407 23.884 25.771 23.8745ZM17.7288 16.4188C17.7686 16.472 17.8146 16.5204 17.8657 16.563C18.0496 16.7077 18.276 16.7878 18.5099 16.7911C18.7438 16.7943 18.9723 16.7207 19.1602 16.5814C19.1602 16.9958 19.5782 17.3316 20.0912 17.3317C20.138 17.3353 20.1851 17.3353 20.2319 17.3317C20.5601 17.2916 20.8315 17.1151 20.954 16.8763C21.0014 16.7901 21.029 16.6955 21.0327 16.5964C21.2216 16.7349 21.451 16.8077 21.6854 16.8028C21.9233 16.7979 22.1527 16.7134 22.3371 16.563L22.3792 16.5252C22.4132 16.6241 22.4256 16.7291 22.4156 16.8331C22.4055 16.9374 22.373 17.0383 22.3205 17.1289C22.1291 17.4432 22.0207 17.8005 22.0047 18.1674L22.0138 18.2428C22.0138 18.2446 22.0138 18.2465 22.0138 18.2483C22.0138 18.2535 22.0142 18.2586 22.0142 18.2638C22.0144 18.281 22.0145 18.2982 22.0151 18.3153C22.0259 18.6684 22.119 19.0144 22.2877 19.3254L22.3107 19.365C22.3604 19.4714 22.3833 19.5886 22.377 19.7064C22.3699 19.8411 22.3252 19.9711 22.2476 20.0814C22.183 20.1757 22.115 20.2672 22.044 20.3551C21.5442 20.9694 20.8878 21.4067 20.0804 21.4067H19.8832C19.0816 21.3373 18.2435 20.8135 17.7195 20.1836C17.6256 20.0688 17.569 19.9282 17.5569 19.7804C17.5448 19.6327 17.5781 19.4848 17.6521 19.3564C17.8452 19.0298 17.949 18.6586 17.9545 18.2797C17.9547 18.2668 17.9552 18.2539 17.9552 18.241C17.9552 18.2326 17.9549 18.2241 17.9549 18.2157C17.9533 17.8475 17.862 17.485 17.6885 17.16C17.6328 17.0586 17.6027 16.9455 17.6002 16.8305C17.6002 16.8171 17.6004 16.8036 17.6011 16.7902C17.6082 16.6569 17.6525 16.5282 17.7288 16.4188ZM12.1534 19.3714C12.1272 19.3699 12.1011 19.3701 12.0751 19.3718C12.0707 19.372 12.0663 19.3723 12.0619 19.3727C12.0549 19.3732 12.0479 19.3742 12.0408 19.375C11.9929 19.3801 11.9453 19.39 11.8991 19.4058L11.3184 19.6048C11.2308 19.6347 11.1547 19.6912 11.1009 19.7665C11.0573 19.8274 11.0304 19.8981 11.0215 19.9719C11.0193 19.99 11.0179 20.0082 11.0179 20.0265C11.0179 20.1191 11.0468 20.2094 11.1007 20.2847C11.1546 20.36 11.2307 20.4165 11.3184 20.4464L11.8989 20.6454C12.0352 20.691 12.1827 20.691 12.319 20.6454C12.4012 20.6185 12.4772 20.5757 12.5428 20.5193C12.6083 20.4629 12.662 20.3941 12.7007 20.3168C12.7395 20.2394 12.7624 20.155 12.7683 20.0687C12.7742 19.9825 12.7631 19.8958 12.7353 19.814C12.7075 19.7321 12.6638 19.6565 12.6066 19.5916C12.5494 19.5268 12.4798 19.4739 12.4021 19.4361C12.3243 19.3983 12.2397 19.3763 12.1534 19.3714ZM28.1138 19.4056C27.9776 19.36 27.8302 19.36 27.6939 19.4056C27.5658 19.4508 27.4558 19.5346 27.3782 19.644C27.3711 19.654 27.3643 19.6642 27.3578 19.6745C27.3453 19.6945 27.3336 19.715 27.3232 19.7364C27.2724 19.841 27.251 19.9563 27.2594 20.0703C27.2635 20.125 27.2743 20.1794 27.2922 20.2322C27.3118 20.29 27.3393 20.3441 27.3733 20.3934C27.4325 20.4791 27.5117 20.55 27.6051 20.5995C27.6096 20.6019 27.614 20.6044 27.6185 20.6067C27.657 20.6259 27.6969 20.6412 27.7378 20.6525C27.748 20.6553 27.7583 20.6579 27.7686 20.6602C27.8822 20.6856 28.0014 20.6804 28.1138 20.6438L28.6961 20.4448C28.7619 20.4224 28.8213 20.3849 28.8695 20.3357C28.8855 20.3193 28.9004 20.3017 28.9138 20.2829C28.9677 20.2076 28.9967 20.1173 28.9968 20.0247C28.9968 19.9321 28.9677 19.8418 28.9138 19.7665C28.86 19.6912 28.7838 19.6345 28.6961 19.6046L28.1138 19.4056ZM19.0742 18.1313C19.0458 18.1279 19.0168 18.1313 18.9899 18.1411C18.963 18.151 18.9387 18.1669 18.9191 18.1879C18.8851 18.2221 18.866 18.2684 18.866 18.3166C18.866 18.3648 18.8851 18.4111 18.9191 18.4453L19.5271 19.0041C19.5803 19.053 19.6177 19.1165 19.6348 19.1867L19.8284 19.9627C19.8384 20.0031 19.8619 20.0391 19.8951 20.0643C19.9283 20.0895 19.9693 20.1026 20.011 20.1014C20.0527 20.1026 20.0935 20.0895 20.1267 20.0643C20.1599 20.039 20.1836 20.0031 20.1936 19.9627C20.2575 19.6633 20.336 19.3474 20.3762 19.1867C20.3941 19.1169 20.4314 19.0536 20.4839 19.0041L21.0899 18.4453C21.1185 18.4191 21.1381 18.3844 21.1457 18.3464C21.1533 18.3083 21.1484 18.2687 21.132 18.2335C21.1157 18.1998 21.0894 18.1719 21.0567 18.1536C21.0241 18.1354 20.9866 18.1276 20.9494 18.1313L20.1076 18.2463L20.0365 18.2554H19.9871L19.0742 18.1313ZM27.2564 14.6436C27.1703 14.6161 27.077 14.6216 26.9946 14.6588L25.4737 15.3415C25.4552 15.3488 25.4374 15.358 25.4208 15.3689C25.3607 15.4048 25.3084 15.4522 25.2667 15.5084C25.2251 15.5645 25.1947 15.6283 25.1778 15.6961C25.1608 15.7639 25.1574 15.8345 25.1678 15.9037C25.1781 15.9728 25.2021 16.0394 25.2382 16.0993L25.2637 16.1394C25.2816 16.1645 25.3019 16.1873 25.3234 16.2087C25.4018 16.2873 25.5028 16.3406 25.6137 16.3592C25.7541 16.3828 25.8982 16.3498 26.0142 16.2672L27.3671 15.2903C27.4402 15.2372 27.4909 15.1587 27.5096 15.0703C27.5282 14.9819 27.5134 14.8897 27.468 14.8116C27.4328 14.751 27.381 14.7024 27.3195 14.6707C27.2995 14.6598 27.2784 14.6507 27.2564 14.6436ZM12.8302 14.6588C12.7478 14.6216 12.6545 14.6161 12.5684 14.6436C12.4823 14.6712 12.4095 14.7299 12.3641 14.808C12.3411 14.8476 12.3261 14.8908 12.3192 14.9353C12.3121 14.9792 12.3131 15.0243 12.3224 15.0685C12.341 15.157 12.3919 15.2354 12.465 15.2885L13.818 16.2654C13.8787 16.309 13.948 16.3393 14.0212 16.3544C14.0945 16.3695 14.1703 16.3691 14.2434 16.353C14.3159 16.3367 14.3844 16.3058 14.4447 16.2622C14.5049 16.2186 14.5558 16.1632 14.5939 16.0993C14.5947 16.0978 14.5954 16.0963 14.5962 16.0948C14.6054 16.0787 14.6212 16.0624 14.6212 16.0463C14.6498 15.9823 14.6657 15.9133 14.6676 15.8432C14.6695 15.7731 14.6575 15.7033 14.6324 15.6378C14.6073 15.5724 14.5694 15.5125 14.5212 15.4617C14.4729 15.4108 14.4151 15.37 14.3511 15.3415L12.8302 14.6588Z" fill="#E9F3FF"/>
</svg>
