<svg width="36" height="36" viewBox="0 0 36 36" fill="none" xmlns="http://www.w3.org/2000/svg">
<path d="M5.84886 25.4264C6.06608 25.2092 6.36477 25.0825 6.68156 25.0825H35.4099C35.9348 25.0825 36.1973 25.7161 35.8262 26.0872L30.1511 31.7622C29.9339 31.9795 29.6352 32.1062 29.3184 32.1062H0.590148C0.0651825 32.1062 -0.1973 31.4726 0.173796 31.1015L5.84886 25.4264Z" fill="#E9F3FF"/>
<path d="M5.84886 4.23774C6.07513 4.02051 6.37382 3.8938 6.68156 3.8938H35.4099C35.9348 3.8938 36.1973 4.52738 35.8262 4.89847L30.1511 10.5735C29.9339 10.7908 29.6352 10.9175 29.3184 10.9175H0.590148C0.0651825 10.9175 -0.1973 10.2839 0.173796 9.9128L5.84886 4.23774Z" fill="#E9F3FF"/>
<path d="M30.1511 14.7642C29.9339 14.547 29.6352 14.4203 29.3184 14.4203H0.590148C0.0651825 14.4203 -0.1973 15.0538 0.173796 15.4249L5.84886 21.1C6.06608 21.3172 6.36477 21.4439 6.68156 21.4439H35.4099C35.9348 21.4439 36.1973 20.8104 35.8262 20.4393L30.1511 14.7642Z" fill="#E9F3FF"/>
</svg>
