<svg width="40" height="40" viewBox="0 0 40 40" fill="none" xmlns="http://www.w3.org/2000/svg">
<rect x="0.5" y="0.5" width="39" height="39" stroke="#E9F3FF" stroke-dasharray="16 16"/>
<path fill-rule="evenodd" clip-rule="evenodd" d="M18.7006 13.4014C19.2369 14.7485 19.6054 16.1566 19.7979 17.5937H31V21.9937H19.8439C19.6662 23.5743 19.2761 25.1237 18.6841 26.6H9V31V9H16.1672L16.1686 9.00137H9V13.4014H18.7006ZM19.956 19.9794C19.956 20.66 19.9182 21.3324 19.8439 21.9937H9V17.5937H19.7979C19.9024 18.3741 19.956 19.1702 19.956 19.9794Z" fill="#E9F3FF"/>
<path d="M31 13.4014L18.7006 13.4014C18.0714 11.8211 17.2187 10.3394 16.1686 9.00137L31 9.00138V13.4014ZM31 31L16.1349 31C17.191 29.663 18.0496 28.1812 18.6841 26.6L31 26.6V31Z" fill="#E9F3FF"/>
</svg>
