<svg width="36" height="36" viewBox="0 0 36 36" fill="none" xmlns="http://www.w3.org/2000/svg">
<path d="M30.4343 14.0048V25.1879L18 32.3672L5.55712 25.1879V10.8208L18 3.63291L27.5608 9.15541L29.0018 8.32703L18 1.96753L4.11609 9.98378V26.0163L18 34.0325L31.8839 26.0163V13.1679L30.4343 14.0048Z" fill="#E9F3FF"/>
<path d="M14.515 25.1878H12.4354V18.2069H19.373C20.0288 18.1983 20.6587 17.9308 21.1161 17.4649C21.582 16.9989 21.8409 16.3691 21.8409 15.7132C21.8409 15.3854 21.7804 15.066 21.6596 14.764C21.5302 14.4621 21.349 14.1945 21.1161 13.9702C20.8917 13.7372 20.6155 13.556 20.3222 13.4266C20.0202 13.2972 19.7009 13.2368 19.373 13.2368H12.4354V11.114H19.3816C20.5983 11.1226 21.7632 11.6059 22.6174 12.4688C23.4804 13.3317 23.9636 14.4966 23.9723 15.7046C23.9809 16.6365 23.6961 17.5426 23.1611 18.3019C22.6692 19.0267 21.9703 19.5963 21.1592 19.9414C20.3567 20.2002 19.5197 20.321 18.6741 20.3124H14.515V25.1878Z" fill="#E9F3FF"/>
<path d="M23.9284 25.0149H21.5037L19.6312 21.7446C20.3733 21.7014 21.1068 21.5461 21.8057 21.3044L23.9284 25.0149Z" fill="#E9F3FF"/>
<path d="M28.9844 11.6756L30.4254 12.4781L31.8577 11.6842V10.0016L30.4254 9.17322L28.993 10.0016V11.6756H28.9844Z" fill="#E9F3FF"/>
</svg>
