<svg width="40" height="40" viewBox="0 0 40 40" fill="none" xmlns="http://www.w3.org/2000/svg">
<rect x="0.5" y="0.5" width="39" height="39" stroke="#E9F3FF" stroke-dasharray="16 16"/>
<g clip-path="url(#clip0_0_73)">
<path fill-rule="evenodd" clip-rule="evenodd" d="M29.0003 8.67029V10.3286C29.0003 10.698 28.6994 10.9989 28.3289 10.9989H26.6708C26.3015 10.9989 26.0005 10.6991 26.0005 10.3286V8.67029C26.0005 8.29978 26.3003 8 26.6708 8H28.3289C28.6994 8 29.0003 8.29978 29.0003 8.67029ZM32 14.6714V16.3298C32 16.6991 31.6991 17.0001 31.3286 17.0001H29.6705C29.3 17.0001 29.0003 16.7003 29.0003 16.3298V14.6714C29.0003 14.3009 29.3 14.0012 29.6705 14.0012H31.3286C31.6991 14.0012 32 14.3009 32 14.6714ZM26.6459 14.9039V13.2456C26.6459 12.8751 26.3451 12.5753 25.9757 12.5753H24.3176C23.9471 12.5753 23.6474 12.8751 23.6474 13.2456V14.9039C23.6474 15.2744 23.9471 15.5742 24.3176 15.5742H25.9757C26.3462 15.5742 26.6459 15.2744 26.6459 14.9039ZM23.6711 20.0021H26.0005L25.9961 19.9999H28.3267C28.6983 19.9999 28.998 20.2997 28.998 20.6702V25.3296C28.998 25.7013 28.6972 26.001 28.3267 26.001H26.6685C26.2969 26.001 25.9972 26.3009 25.9972 26.6713V28.3296C25.9972 28.7002 25.6974 28.9999 25.327 28.9999H23.6688C23.2972 28.9999 22.9974 29.2997 22.9974 29.6702V31.3286C22.9974 31.7002 22.6977 32 22.3272 32H14.6674C14.2969 32 13.9972 31.6991 13.9972 31.3286V29.6702C13.9972 29.2997 13.6974 28.9999 13.327 28.9999H11.6688C11.2983 28.9999 10.9986 28.7002 10.9986 28.3296V26.6713C10.9986 26.3009 10.6989 26.001 10.3284 26.001H8.67022C8.29975 26.001 8 25.7002 8 25.3296V17.6691C8 17.2985 8.29975 16.9988 8.67022 16.9988H10.3329C10.7033 16.9988 11.0031 16.699 11.0031 16.3285V14.6713C11.0031 14.3008 11.3028 14.001 11.6733 14.001H13.3315C13.7019 14.001 14.0017 13.7012 14.0017 13.3307V11.6735C14.0017 11.303 14.3014 11.0032 14.6719 11.0032H19.3309C19.7014 11.0032 20.0011 11.303 20.0011 11.6735V16.333C20.0011 16.7035 20.3009 17.0033 20.6713 17.0033H22.3295C22.7011 17.0033 23.0009 17.303 23.0009 17.6735V19.3319C23.0009 19.7024 23.3006 20.0021 23.6711 20.0021ZM23.6711 26.0045H26.0005L25.9972 26.0033V23.6713C25.9972 23.3009 25.6963 23.001 25.3259 23.001H23.6677C23.2972 23.001 22.9974 22.7013 22.9974 22.3307V20.6724C22.9974 20.3019 22.6966 20.0021 22.3261 20.0021H20.668C20.2975 20.0021 19.9978 19.7024 19.9978 19.3319V17.6735C19.9978 17.303 19.698 17.0033 19.3275 17.0033H17.6693C17.2989 17.0033 16.9991 16.7035 16.9991 16.333V14.6746C16.9991 14.3041 16.6994 14.0044 16.3289 14.0044H14.6708C14.3003 14.0044 14.0006 14.3041 14.0006 14.6746V16.333C14.0006 16.7035 13.7008 17.0033 13.3303 17.0033H11.6722C11.3017 17.0033 11.002 17.303 11.002 17.6735V25.3342C11.002 25.7046 11.3017 26.0045 11.6722 26.0045H13.3303C13.7008 26.0045 14.0006 26.3042 14.0006 26.6747V28.3331C14.0006 28.7035 14.3003 29.0033 14.6708 29.0033H22.3295C22.7011 29.0033 23.0009 28.7035 23.0009 28.3331V26.6759C23.0009 26.3042 23.3006 26.0045 23.6711 26.0045Z" fill="#E9F3FF"/>
</g>
<defs>
<clipPath id="clip0_0_73">
<rect width="24" height="24" fill="white" transform="translate(8 8)"/>
</clipPath>
</defs>
</svg>
