<svg width="24" height="24" viewBox="0 0 24 24" fill="none" xmlns="http://www.w3.org/2000/svg">
<path d="M9.65118 12.7824C9.65118 13.0145 9.58233 13.2415 9.45334 13.4345C9.32434 13.6276 9.141 13.7781 8.9265 13.8669C8.71199 13.9558 8.47596 13.979 8.24824 13.9337C8.02052 13.8884 7.81135 13.7766 7.64718 13.6124C7.483 13.4483 7.3712 13.2391 7.3259 13.0114C7.28061 12.7837 7.30385 12.5476 7.3927 12.3331C7.48155 12.1186 7.63202 11.9353 7.82507 11.8063C8.01812 11.6773 8.24508 11.6084 8.47726 11.6084C8.7886 11.6084 9.08719 11.7321 9.30734 11.9523C9.5275 12.1724 9.65118 12.471 9.65118 12.7824ZM15.5208 11.6084C15.2886 11.6084 15.0616 11.6773 14.8686 11.8063C14.6755 11.9353 14.5251 12.1186 14.4362 12.3331C14.3473 12.5476 14.3241 12.7837 14.3694 13.0114C14.4147 13.2391 14.5265 13.4483 14.6907 13.6124C14.8548 13.7766 15.064 13.8884 15.2917 13.9337C15.5195 13.979 15.7555 13.9558 15.97 13.8669C16.1845 13.7781 16.3678 13.6276 16.4968 13.4345C16.6258 13.2415 16.6947 13.0145 16.6947 12.7824C16.6947 12.471 16.571 12.1724 16.3508 11.9523C16.1307 11.7321 15.8321 11.6084 15.5208 11.6084ZM22.8039 17.9574L16.2496 20.8638C16.0525 20.9514 15.8396 20.9978 15.6239 21.0001C15.4082 21.0024 15.1944 20.9606 14.9955 20.8772C14.7965 20.7938 14.6168 20.6707 14.4672 20.5153C14.3177 20.3599 14.2015 20.1755 14.1258 19.9736L13.3324 17.8214C12.8941 17.8507 12.4497 17.8657 11.999 17.8664C11.5484 17.867 11.1039 17.852 10.6656 17.8214L9.87226 19.9736C9.79644 20.1754 9.68017 20.3597 9.53059 20.515C9.38101 20.6703 9.20126 20.7934 9.00239 20.8768C8.80351 20.9602 8.5897 21.002 8.37408 20.9998C8.15845 20.9975 7.94556 20.9513 7.74846 20.8638L1.19409 17.9574C0.855795 17.8095 0.581004 17.5462 0.418685 17.2146C0.256366 16.883 0.217065 16.5045 0.307785 16.1466L3.19464 4.7606C3.27083 4.46449 3.43171 4.19702 3.65759 3.99095C3.88347 3.78487 4.16454 3.64914 4.46638 3.60038L7.994 3.02027C8.38288 2.95772 8.78113 3.04205 9.11129 3.25685C9.44145 3.47165 9.67991 3.80157 9.78031 4.18244L10.0992 5.43853C10.7207 5.37788 11.354 5.34756 11.999 5.34756C12.644 5.34756 13.2766 5.37788 13.8968 5.43853L14.2158 4.18244C14.3159 3.80145 14.5544 3.4714 14.8846 3.25656C15.2148 3.04172 15.6131 2.95749 16.0021 3.02027L19.5316 3.60038C19.8335 3.64914 20.1145 3.78487 20.3404 3.99095C20.5663 4.19702 20.7272 4.46449 20.8034 4.7606L23.6922 16.1456C23.783 16.5039 23.7436 16.8828 23.5809 17.2147C23.4182 17.5465 23.1428 17.8098 22.8039 17.9574ZM22.1729 16.5271L19.2841 5.1519C19.2841 5.1519 19.2841 5.1519 19.2763 5.1519L15.7487 4.56494C15.7462 4.56349 15.7433 4.56272 15.7404 4.56272C15.7375 4.56272 15.7346 4.56349 15.7321 4.56494L15.4552 5.65473C15.9443 5.74669 16.4335 5.85625 16.906 5.9893C17.0923 6.03678 17.2546 6.15117 17.3619 6.31065C17.4692 6.47012 17.5141 6.66353 17.488 6.85399C17.4619 7.04445 17.3666 7.21863 17.2203 7.34332C17.074 7.46801 16.8869 7.53448 16.6947 7.53006C16.6232 7.52986 16.5522 7.51999 16.4834 7.50071C15.0218 7.10411 13.5134 6.90635 11.999 6.91278C10.4846 6.90603 8.97627 7.10346 7.51465 7.49973C7.4148 7.5306 7.30979 7.54116 7.20579 7.53078C7.1018 7.52041 7.00094 7.48931 6.90916 7.43932C6.81738 7.38933 6.73655 7.32147 6.67142 7.23973C6.6063 7.15799 6.5582 7.06404 6.52997 6.96342C6.50175 6.86279 6.49396 6.75753 6.50707 6.65385C6.52018 6.55017 6.55393 6.45016 6.60632 6.35973C6.6587 6.2693 6.72868 6.19028 6.8121 6.12733C6.89552 6.06438 6.99071 6.01878 7.09204 5.99321C7.56356 5.86017 8.04878 5.7506 8.54183 5.65864L8.26498 4.56494C8.26498 4.56494 8.26498 4.56494 8.25324 4.56494L4.72171 5.14506C4.71883 5.14426 4.71579 5.14426 4.7129 5.14506L1.82507 16.532L8.37943 19.4345C8.38274 19.4363 8.38644 19.4373 8.39019 19.4373C8.39396 19.4373 8.39765 19.4363 8.40096 19.4345L9.06422 17.6463C8.39968 17.5446 7.74177 17.4035 7.094 17.2237C6.90106 17.162 6.73953 17.028 6.64338 16.8497C6.54723 16.6714 6.52394 16.4628 6.57842 16.2677C6.63289 16.0726 6.76088 15.9063 6.93548 15.8036C7.11007 15.7009 7.31768 15.6699 7.51465 15.7171C8.97618 16.1139 10.4846 16.3113 11.999 16.3041C13.5134 16.3113 15.0218 16.1139 16.4834 15.7171C16.6833 15.6611 16.8973 15.6868 17.0782 15.7885C17.2592 15.8902 17.3924 16.0597 17.4484 16.2596C17.5045 16.4595 17.4788 16.6735 17.3771 16.8545C17.2753 17.0354 17.1059 17.1686 16.906 17.2246C16.2575 17.4042 15.599 17.545 14.9338 17.6463L15.5941 19.4345C15.5973 19.4363 15.6008 19.4372 15.6044 19.4372C15.608 19.4372 15.6115 19.4363 15.6147 19.4345L22.1729 16.5271Z" fill="#92A1B1"/>
</svg>
