<svg width="352" height="224" viewBox="0 0 352 224" fill="none" xmlns="http://www.w3.org/2000/svg">
<rect x="96.4444" y="32.4444" width="159.111" height="159.111" rx="79.5556" stroke="#E9F3FF" stroke-width="0.888889"/>
<rect x="104.889" y="40.8889" width="142.222" height="142.222" rx="71.1111" stroke="#3E97FF" stroke-width="0.888889"/>
<path d="M145.997 130.337C146.534 129.801 147.271 129.488 148.053 129.488H218.987C220.283 129.488 220.932 131.052 220.015 131.969L206.003 145.981C205.466 146.518 204.729 146.83 203.947 146.83H133.013C131.716 146.83 131.068 145.266 131.985 144.35L145.997 130.337Z" stroke="#E9F3FF" stroke-width="1.77778"/>
<path d="M145.997 78.0187C146.556 77.4823 147.293 77.1694 148.053 77.1694H218.987C220.283 77.1694 220.932 78.7338 220.015 79.6501L206.003 93.6626C205.466 94.199 204.729 94.5119 203.947 94.5119H133.013C131.716 94.5119 131.068 92.9475 131.985 92.0312L145.997 78.0187Z" stroke="#E9F3FF" stroke-width="1.77778"/>
<path d="M206.003 104.011C205.466 103.474 204.729 103.161 203.947 103.161H133.013C131.716 103.161 131.068 104.726 131.985 105.642L145.997 119.654C146.534 120.191 147.271 120.504 148.053 120.504H218.987C220.283 120.504 220.932 118.939 220.015 118.023L206.003 104.011Z" stroke="#E9F3FF" stroke-width="1.77778"/>
</svg>
