<svg width="40" height="40" viewBox="0 0 40 40" fill="none" xmlns="http://www.w3.org/2000/svg">
<rect x="0.5" y="0.5" width="39" height="39" stroke="#E9F3FF" stroke-dasharray="16 16"/>
<path d="M27.3719 13.2367C26.0161 12.6145 24.5621 12.1562 23.0419 11.8937C23.0142 11.8886 22.9866 11.9013 22.9723 11.9266C22.7853 12.2592 22.5782 12.693 22.4332 13.0341C20.7981 12.7893 19.1714 12.7893 17.5699 13.0341C17.4248 12.6855 17.2102 12.2592 17.0223 11.9266C17.0081 11.9021 16.9804 11.8895 16.9527 11.8937C15.4334 12.1554 13.9794 12.6137 12.6227 13.2367C12.611 13.2417 12.6009 13.2502 12.5943 13.2611C9.83643 17.3813 9.08094 21.4002 9.45156 25.3692C9.45323 25.3886 9.46413 25.4072 9.47923 25.419C11.2988 26.7552 13.0613 27.5664 14.7911 28.1041C14.8188 28.1126 14.8481 28.1024 14.8657 28.0796C15.2749 27.5209 15.6397 26.9317 15.9524 26.3121C15.9709 26.2758 15.9532 26.2327 15.9155 26.2184C15.337 25.9989 14.7861 25.7313 14.2561 25.4274C14.2142 25.403 14.2109 25.343 14.2494 25.3143C14.3609 25.2307 14.4725 25.1438 14.579 25.056C14.5982 25.04 14.6251 25.0366 14.6477 25.0467C18.1292 26.6362 21.8982 26.6362 25.3385 25.0467C25.3612 25.0358 25.388 25.0391 25.4081 25.0552C25.5147 25.143 25.6262 25.2307 25.7385 25.3143C25.7771 25.343 25.7746 25.403 25.7327 25.4274C25.2027 25.7372 24.6518 25.9989 24.0724 26.2175C24.0347 26.2319 24.0179 26.2758 24.0364 26.3121C24.3558 26.9308 24.7206 27.52 25.1222 28.0788C25.139 28.1024 25.1692 28.1126 25.1968 28.1041C26.935 27.5664 28.6976 26.7552 30.5171 25.419C30.533 25.4072 30.5431 25.3894 30.5448 25.37C30.9883 20.7814 29.8019 16.7955 27.3996 13.262C27.3937 13.2502 27.3837 13.2417 27.3719 13.2367ZM16.4723 22.9525C15.4242 22.9525 14.5605 21.9902 14.5605 20.8084C14.5605 19.6266 15.4074 18.6644 16.4723 18.6644C17.5456 18.6644 18.4008 19.6351 18.3841 20.8084C18.3841 21.9902 17.5372 22.9525 16.4723 22.9525ZM23.5408 22.9525C22.4927 22.9525 21.6291 21.9902 21.6291 20.8084C21.6291 19.6266 22.4759 18.6644 23.5408 18.6644C24.6141 18.6644 25.4694 19.6351 25.4526 20.8084C25.4526 21.9902 24.6141 22.9525 23.5408 22.9525Z" fill="#E9F3FF"/>
</svg>
