<svg width="413" height="48" viewBox="0 0 413 48" fill="none" xmlns="http://www.w3.org/2000/svg">
<path d="M14.2773 37.0498H63.1562L63.1571 37.0508L63.1562 37.0518L53.5009 46.708C53.3173 46.8916 53.0625 47 52.7909 47H3.91299L3.91104 46.999L13.5673 37.3428C13.7509 37.1592 14.0057 37.0498 14.2773 37.0498ZM12.4032 18.9258C15.4561 18.926 17.9306 21.4012 17.9306 24.4541V28.8594H14.2773C14.0058 28.8594 13.7509 28.7509 13.5673 28.5674L3.92569 18.9258H12.4032ZM31.411 18.9258H52.954C53.1637 18.96 53.3555 19.0567 53.5009 19.2021L63.1562 28.8574V28.8584L63.1542 28.8594H25.8827V24.4541C25.8827 21.4011 28.358 18.9258 31.411 18.9258ZM63.1562 1V1.00195L53.5009 10.6572C53.3781 10.78 53.2219 10.8675 53.0507 10.9131H31.411C28.3581 10.9131 25.8828 8.43869 25.8827 5.38574V1H63.1562ZM14.2773 1H17.9306V5.38574C17.9305 8.43854 15.456 10.9128 12.4032 10.9131H3.94717L13.5526 1.30664C13.7372 1.12946 13.9625 1.02764 14.1825 1.00488L14.2773 1Z" fill="#3E97FF" stroke="#3E97FF" stroke-width="2"/>
<path d="M21.5803 3.83497C21.6594 3.36487 22.3368 3.3705 22.4081 3.84185L22.8802 6.96327C23.4304 10.6009 26.2879 13.4548 29.9262 14.0005L33.1078 14.4776C33.579 14.5483 33.5858 15.2254 33.116 15.3054L29.7878 15.8723C26.2294 16.4785 23.4585 19.2943 22.9095 22.8619L22.4095 26.1117C22.3371 26.5819 21.6616 26.5872 21.5819 26.1182L21.0074 22.7377C20.4104 19.2244 17.6575 16.4725 14.144 15.8767L10.9121 15.3286C10.4433 15.2491 10.448 14.574 10.9179 14.5011L14.0446 14.0161C17.614 13.4625 20.4276 10.6848 21.027 7.12278L21.5803 3.83497Z" fill="#E9F3FF"/>
<path d="M374.831 43.4422L389.782 4.39062H394.747L409.587 43.4422H404.845L395.305 18.1145C395.045 17.4078 394.747 16.5896 394.413 15.6598C394.115 14.6928 393.78 13.7072 393.408 12.703C393.074 11.6617 392.739 10.6575 392.404 9.69049C392.107 8.72349 391.828 7.86808 391.568 7.12424H392.683C392.386 8.05404 392.07 9.00243 391.735 9.96943C391.437 10.8992 391.121 11.8476 390.786 12.8146C390.452 13.7444 390.117 14.6742 389.782 15.604C389.448 16.5338 389.113 17.4636 388.778 18.3934L379.294 43.4422H374.831ZM381.191 32.6751L382.809 28.4353H401.275L403.06 32.6751H381.191Z" fill="#E9F3FF"/>
<path d="M355.111 43.4422L339.992 4.39062H344.901L354.608 29.83C355.055 30.9829 355.445 32.0057 355.78 32.8983C356.115 33.7909 356.412 34.6463 356.673 35.4645C356.97 36.2456 357.249 37.0266 357.509 37.8076C357.77 38.5887 358.049 39.4441 358.346 40.3739L356.896 40.4297C357.268 39.1651 357.621 37.9936 357.956 36.915C358.328 35.8365 358.7 34.7393 359.071 33.6235C359.481 32.4706 359.983 31.1317 360.578 29.6068L370.229 4.39062H375.138L359.574 43.4422H355.111Z" fill="#E9F3FF"/>
<path d="M317.237 44C314.485 44 311.937 43.5165 309.594 42.5495C307.288 41.5453 305.261 40.1506 303.513 38.3654C301.802 36.5802 300.463 34.4788 299.496 32.0614C298.567 29.6067 298.102 26.9289 298.102 24.0279C298.102 21.1269 298.567 18.4677 299.496 16.0502C300.463 13.5955 301.802 11.4756 303.513 9.69038C305.261 7.86797 307.288 6.47327 309.594 5.50628C311.937 4.50209 314.485 4 317.237 4C320.026 4 322.574 4.50209 324.88 5.50628C327.223 6.47327 329.25 7.86797 330.961 9.69038C332.709 11.4756 334.048 13.5955 334.978 16.0502C335.945 18.4677 336.428 21.1269 336.428 24.0279C336.428 26.8917 335.945 29.5509 334.978 32.0056C334.048 34.4231 332.709 36.543 330.961 38.3654C329.25 40.1506 327.223 41.5453 324.88 42.5495C322.574 43.5165 320.026 44 317.237 44ZM317.237 39.7043C319.357 39.7043 321.309 39.3324 323.095 38.5886C324.917 37.8075 326.479 36.7104 327.781 35.2971C329.083 33.8838 330.087 32.2287 330.793 30.3319C331.537 28.398 331.909 26.2966 331.909 24.0279C331.909 21.722 331.537 19.6206 330.793 17.7238C330.087 15.7899 329.083 14.1162 327.781 12.7029C326.479 11.2896 324.917 10.1925 323.095 9.41144C321.309 8.6304 319.357 8.23989 317.237 8.23989C315.117 8.23989 313.146 8.6304 311.323 9.41144C309.538 10.1925 307.995 11.2896 306.693 12.7029C305.391 14.1162 304.387 15.7899 303.68 17.7238C302.974 19.6206 302.621 21.722 302.621 24.0279C302.621 26.2966 302.974 28.398 303.68 30.3319C304.387 32.2287 305.391 33.8838 306.693 35.2971C307.995 36.7104 309.538 37.8075 311.323 38.5886C313.146 39.3324 315.117 39.7043 317.237 39.7043Z" fill="#E9F3FF"/>
<path d="M256.087 43.4422V4.39062H260.048L285.599 38.1982L284.818 39.2023C284.706 38.6073 284.614 37.7147 284.539 36.5245C284.502 35.3344 284.446 33.9955 284.372 32.5078C284.335 30.9829 284.297 29.4022 284.26 27.7658C284.223 26.1294 284.186 24.5301 284.149 22.968C284.149 21.406 284.149 19.9927 284.149 18.7281V4.39062H288.5V43.4422H284.428L258.988 10.081L259.658 8.90945C259.769 10.3971 259.862 11.8662 259.937 13.3167C260.048 14.7672 260.123 16.1619 260.16 17.5008C260.234 18.8397 260.29 20.0671 260.327 21.1828C260.364 22.2986 260.383 23.247 260.383 24.028C260.42 24.809 260.439 25.3669 260.439 25.7016V43.4422H256.087Z" fill="#E9F3FF"/>
<path d="M221.575 43.4422V4.39062H245.229V8.63052H225.926V39.2023H245.117V43.4422H221.575ZM223.583 25.4785V21.2386H242.105V25.4785H223.583Z" fill="#E9F3FF"/>
<path d="M184.743 31.4478L184.575 26.2595L206.667 4.39062H212.525L184.743 31.4478ZM181.451 43.4422V4.39062H185.803V43.4422H181.451ZM207.616 43.4422L191.939 22.5775L195.119 19.7881L213.083 43.4422H207.616Z" fill="#E9F3FF"/>
<path d="M138.447 43.4422L153.398 4.39062H158.363L173.203 43.4422H168.461L158.921 18.1145C158.661 17.4078 158.363 16.5896 158.028 15.6598C157.731 14.6928 157.396 13.7072 157.024 12.703C156.69 11.6617 156.355 10.6575 156.02 9.69049C155.723 8.72349 155.444 7.86808 155.183 7.12424H156.299C156.001 8.05404 155.685 9.00243 155.351 9.96943C155.053 10.8992 154.737 11.8476 154.402 12.8146C154.068 13.7444 153.733 14.6742 153.398 15.604C153.063 16.5338 152.729 17.4636 152.394 18.3934L142.91 43.4422H138.447ZM144.807 32.6751L146.425 28.4353H164.89L166.676 32.6751H144.807Z" fill="#E9F3FF"/>
<path d="M121.146 43.4422V8.63052H109.988V4.39062H137.101V8.63052H125.498V43.4422H121.146Z" fill="#E9F3FF"/>
<path d="M90.3847 44C88.4135 44 86.5539 43.7211 84.8059 43.1632C83.0578 42.6053 81.4586 41.7685 80.0081 40.6527C78.5576 39.537 77.2745 38.1609 76.1587 36.5244L79.1713 33.1771C80.9193 35.669 82.7045 37.417 84.5269 38.4212C86.3865 39.4254 88.4693 39.9275 90.7752 39.9275C92.4488 39.9275 93.9737 39.6485 95.3498 39.0907C96.7259 38.5328 97.8045 37.7517 98.5855 36.7476C99.3665 35.7434 99.757 34.5904 99.757 33.2887C99.757 32.4333 99.6083 31.6709 99.3107 31.0014C99.0504 30.3319 98.6413 29.7369 98.0834 29.2162C97.5255 28.6955 96.8375 28.2306 96.0193 27.8215C95.201 27.4124 94.2526 27.0404 93.1741 26.7057C92.1327 26.371 90.9611 26.0363 89.6594 25.7015C87.7626 25.2552 86.089 24.7345 84.6385 24.1395C83.2252 23.5072 82.0165 22.7448 81.0123 21.8522C80.0453 20.9596 79.3014 19.9368 78.7808 18.7838C78.2973 17.5937 78.0555 16.199 78.0555 14.5997C78.0555 13.0748 78.3716 11.6616 79.0039 10.3598C79.6734 9.05811 80.5846 7.94235 81.7375 7.01255C82.8905 6.04556 84.248 5.30172 85.81 4.78103C87.3721 4.26034 89.0458 4 90.831 4C92.8393 4 94.6246 4.27894 96.1866 4.83682C97.7859 5.35751 99.1992 6.13854 100.427 7.17992C101.654 8.22129 102.714 9.46722 103.606 10.9177L100.538 13.9303C99.757 12.7029 98.8644 11.643 97.8603 10.7503C96.8933 9.85774 95.8147 9.18828 94.6246 8.74198C93.4716 8.25848 92.1885 8.01673 90.7752 8.01673C89.1387 8.01673 87.6882 8.29568 86.4237 8.85356C85.1964 9.41144 84.2294 10.1925 83.5227 11.1967C82.8161 12.1636 82.4628 13.2794 82.4628 14.5439C82.4628 15.4737 82.6301 16.3106 82.9649 17.0544C83.2996 17.761 83.8203 18.3933 84.5269 18.9512C85.2708 19.4719 86.2192 19.9554 87.3721 20.4017C88.5623 20.8108 89.9756 21.2013 91.612 21.5732C93.546 22.0195 95.2754 22.5588 96.8003 23.1911C98.3623 23.8233 99.6827 24.5858 100.761 25.4784C101.877 26.3338 102.714 27.338 103.272 28.4909C103.867 29.6439 104.164 30.9642 104.164 32.4519C104.164 34.7578 103.588 36.7848 102.435 38.5328C101.282 40.2436 99.6641 41.5825 97.5813 42.5495C95.5358 43.5165 93.1369 44 90.3847 44Z" fill="#E9F3FF"/>
</svg>
