<svg width="352" height="224" viewBox="0 0 352 224" fill="none" xmlns="http://www.w3.org/2000/svg">
<rect x="96.4444" y="32.4444" width="159.111" height="159.111" rx="79.5556" stroke="#3E97FF" stroke-width="0.888889"/>
<rect x="104.889" y="40.8889" width="142.222" height="142.222" rx="71.1111" stroke="#E9F3FF" stroke-width="0.888889"/>
<path d="M148.053 130.381H218.987C219.488 130.381 219.737 130.984 219.384 131.337L205.371 145.35C205.001 145.72 204.49 145.937 203.947 145.938H133.013C132.512 145.937 132.263 145.334 132.616 144.98L146.629 130.969C146.999 130.599 147.509 130.381 148.053 130.381ZM147.176 104.078C150.897 104.078 153.914 107.095 153.914 110.816V119.61H148.053C147.509 119.61 146.999 119.393 146.629 119.022L132.616 105.011C132.308 104.702 132.46 104.189 132.847 104.078H147.176ZM171.077 104.078H204.242C204.674 104.142 205.069 104.34 205.371 104.642L219.384 118.654C219.737 119.008 219.488 119.61 218.987 119.61H164.338V110.816C164.338 107.095 167.356 104.078 171.077 104.078ZM218.987 78.0635C219.488 78.0635 219.737 78.6651 219.384 79.0186L205.371 93.0312C205.106 93.2961 204.769 93.4817 204.398 93.5664H171.077C167.355 93.5664 164.338 90.5496 164.338 86.8281V78.0635H218.987ZM148.053 78.0635H153.914V86.8281C153.914 90.5496 150.897 93.5663 147.176 93.5664H132.766C132.437 93.4123 132.332 92.9472 132.616 92.6631L146.622 78.6562C147.024 78.2733 147.541 78.0636 148.053 78.0635Z" stroke="#3E97FF" stroke-width="1.78616"/>
<path d="M158.652 82.7349C158.767 82.0527 159.75 82.0609 159.854 82.7449L160.539 87.2749C161.337 92.554 165.484 96.6958 170.764 97.4876L175.382 98.1801C176.066 98.2827 176.075 99.2653 175.394 99.3814L170.563 100.204C165.399 101.084 161.378 105.17 160.581 110.348L159.856 115.064C159.751 115.747 158.77 115.754 158.655 115.074L157.821 110.168C156.954 105.069 152.959 101.075 147.86 100.211L143.17 99.4151C142.49 99.2998 142.497 98.32 143.178 98.2142L147.716 97.5104C152.896 96.7069 156.979 92.6758 157.849 87.5064L158.652 82.7349Z" fill="#E9F3FF"/>
</svg>
