<svg width="53" height="36" viewBox="0 0 53 36" fill="none" xmlns="http://www.w3.org/2000/svg">
<path d="M44.7139 34.0635L48.6975 27.9222L52.8471 34.105L44.7139 34.0635Z" fill="#E9F3FF"/>
<path d="M33.9337 17.3061L23.2802 1.59217L31.3881 1.5L37.7224 11.5046L44.0636 1.6256L52.2261 1.6184L41.6295 17.4837L45.1222 22.5748L41.0967 28.4355L37.7816 23.226L30.8553 34.1777H22.5675L33.9337 17.3061Z" fill="#E9F3FF"/>
<path d="M8.135 1.6816L0 1.57525L4.0941 7.68981L8.135 1.6816Z" fill="#E9F3FF"/>
<path d="M2.81748 19.6174L16.0574 1.52209L23.2263 1.58976L13.1862 14.6551C23.0758 15.1336 22.9694 22.7369 22.9694 24.7574C22.9694 26.7778 20.8958 33.4773 14.3559 34.328C7.816 35.1787 5.47652 32.6797 3.5624 31.0846C2.0311 29.8085 1.32926 26.5829 1.16975 25.1296H8.08185C8.45404 27.4159 10.5277 28.3198 12.2823 28.1603C14.0369 28.0007 15.951 26.831 16.0574 23.5876C16.1424 20.9929 14.0723 19.9544 13.0267 19.7594L2.81748 19.6174Z" fill="#E9F3FF"/>
</svg>
