<svg width="46" height="32" viewBox="0 0 46 32" fill="none" xmlns="http://www.w3.org/2000/svg">
<mask id="mask0_236_28904" style="mask-type:luminance" maskUnits="userSpaceOnUse" x="0" y="1" width="46" height="30">
<path d="M45.2175 1H0V31H45.2175V1Z" fill="white"/>
</mask>
<g mask="url(#mask0_236_28904)">
<path fill-rule="evenodd" clip-rule="evenodd" d="M22.7062 22.5891C22.9148 22.2808 22.9393 21.874 22.743 21.5534L10.8304 1.39527C10.6586 1.09937 10.3519 0.926758 10.0084 0.926758H1.64134C0.905234 0.926758 0.439034 1.72815 0.819356 2.36927L16.4739 29.2223C16.8174 29.8263 17.6884 29.8633 18.081 29.2838L22.7062 22.5891ZM8.24176 28.803C8.62208 29.444 8.15588 30.2578 7.41976 30.2578H7.40751H1.67815C1.1506 30.2578 0.721209 29.8263 0.721209 29.296V19.5807C0.721209 18.5944 2.00939 18.2492 2.50013 19.0876L8.24176 28.803Z" fill="#E9F3FF"/>
<path d="M45.132 29.0742C45.5 29.7153 45.046 30.5168 44.31 30.5168H35.992C35.6485 30.5168 35.3418 30.3317 35.17 30.0357L19.0371 2.36927C18.669 1.72815 19.1229 0.926758 19.859 0.926758H28.2138C28.5573 0.926758 28.864 1.11169 29.0358 1.4076L45.132 29.0742Z" fill="#E9F3FF"/>
</g>
</svg>
