<svg width="40" height="40" viewBox="0 0 40 40" fill="none" xmlns="http://www.w3.org/2000/svg">
<rect x="0.5" y="0.5" width="39" height="39" stroke="#E9F3FF" stroke-dasharray="16 16"/>
<path fill-rule="evenodd" clip-rule="evenodd" d="M22.7002 20H17.5999V14.6H22.7002C23.4163 14.6 24.103 14.8845 24.6094 15.3908C25.1157 15.8972 25.4002 16.5839 25.4002 17.3C25.4002 18.0161 25.1157 18.7028 24.6094 19.2092C24.103 19.7155 23.4163 20 22.7002 20ZM22.7002 11H13.9999V29H17.5999V23.6H22.7002C24.371 23.6 25.9735 22.9363 27.155 21.7548C28.3364 20.5733 29.0002 18.9709 29.0002 17.3C29.0002 15.6291 28.3364 14.0267 27.155 12.8452C25.9735 11.6637 24.371 11 22.7002 11Z" fill="#E9F3FF"/>
</svg>
