<svg width="40" height="40" viewBox="0 0 40 40" fill="none" xmlns="http://www.w3.org/2000/svg">
<rect x="0.5" y="0.5" width="39" height="39" stroke="#E9F3FF" stroke-dasharray="16 16"/>
<path d="M32.7334 17.4577L29.3231 11.5721C28.4067 9.97407 26.7304 9 24.8996 9H18.0997C16.2669 9 14.5926 9.97407 13.6556 11.5536L10.2659 17.4577C9.81574 18.2331 9.57861 19.1137 9.57861 20.0103C9.57861 20.9069 9.81574 21.7875 10.2659 22.5629L13.6762 28.4464C14.5926 30.0259 16.2875 31 18.1182 31H24.9182C26.751 31 28.4273 30.0259 29.3417 28.4464L32.7519 22.5629C33.6478 20.9833 33.6478 19.0352 32.7334 17.4577ZM21.7427 27.6083C21.6068 27.6083 21.4894 27.4929 21.4894 27.355V26.3232C21.4894 26.1873 21.5862 26.0885 21.7241 26.0699C24.9182 25.9525 27.5686 23.263 27.5686 19.9907C27.5686 16.5022 24.6258 13.6974 21.1002 13.9115C16.2483 14.204 13.6947 19.9516 16.6767 23.712L17.7681 22.6411C15.4884 19.5233 18.0791 15.0009 22.0166 15.4499C24.1397 15.6846 25.8346 17.4186 26.0488 19.5418C26.3021 22.1922 24.2757 24.4142 21.7633 24.5501C21.6253 24.5501 21.51 24.4327 21.51 24.2968V23.263C21.51 23.1477 21.6068 23.0303 21.7427 23.0303C23.3016 22.9315 24.5681 21.6073 24.5681 19.9907C24.5681 18.197 23.0092 16.7555 21.1578 16.9697C18.9955 17.2044 17.7681 19.7168 18.8987 21.5497L20.0478 20.3985C19.8131 19.5809 20.3588 18.6645 21.2175 18.5101C22.1916 18.3144 23.0483 19.0558 23.0483 20.0093C23.0689 21.0039 22.0742 21.7432 21.1187 21.4714L20.7501 21.8421L17.1833 25.3883C16.8909 25.6807 16.4048 25.6807 16.1124 25.3883C15.9322 25.21 15.763 25.0208 15.6058 24.822C11.6889 20.1452 14.885 12.781 21.0219 12.4309C25.4248 12.157 29.0884 15.664 29.0884 20.0299C29.109 24.1218 25.7955 27.4929 21.7427 27.6083Z" fill="#E9F3FF"/>
</svg>
