<svg width="99" height="36" viewBox="0 0 99 36" fill="none" xmlns="http://www.w3.org/2000/svg">
<path d="M82.5 1.50008C73.3874 1.50008 66.0001 8.88737 66.0001 18C66.0001 27.1127 73.3874 34.5 82.5 34.5C91.6127 34.5 99 27.1127 99 18C99 8.88737 91.6127 1.50008 82.5 1.50008Z" fill="#E9F3FF"/>
<path d="M49.4971 1.50008C40.3844 1.50008 32.9971 8.88737 32.9971 18C32.9971 27.1127 40.3844 34.5 49.4971 34.5C58.6098 34.5 65.9971 27.1127 65.9971 18C65.9971 8.88737 58.6098 1.50008 49.4971 1.50008Z" fill="#E9F3FF"/>
<path d="M16.5 1.50008C7.38737 1.50008 8.39233e-05 8.88737 8.39233e-05 18C8.39233e-05 27.1127 7.38737 34.5 16.5 34.5C25.6127 34.5 33 27.1127 33 18C33 8.88737 25.6127 1.50008 16.5 1.50008Z" fill="#E9F3FF"/>
</svg>
