<svg width="36" height="36" viewBox="0 0 36 36" fill="none" xmlns="http://www.w3.org/2000/svg">
<path d="M25.0813 26.7942C21.6031 21.1448 16.4171 17.9426 10.0127 16.6096C7.74767 16.141 5.47228 16.1462 3.27499 17.0106C1.77021 17.6041 1.54111 18.229 2.24924 19.8066C7.06037 18.6663 11.5383 19.7285 15.7298 22.1497C19.9525 24.5917 23.1027 27.9918 24.5346 32.8238C26.5444 32.2094 26.8048 31.8709 26.3205 30.0017C26.0341 28.903 25.6749 27.7575 25.0813 26.7942Z" fill="#E9F3FF"/>
<path d="M28.888 22.1967C24.4205 15.6881 18.0942 12.0485 10.362 10.8301C8.31572 10.5073 6.22777 10.5958 4.31165 11.5747C3.39525 12.0433 2.58298 12.6421 2.36429 13.9126C8.39382 12.2516 13.8037 13.7199 18.896 16.6722C24.0144 19.6401 28.0132 23.6233 29.5701 29.7466C30.6531 28.7885 30.8458 27.6118 30.5646 26.5184C30.1793 25.0188 29.7419 23.4411 28.888 22.1967Z" fill="#E9F3FF"/>
<path d="M2.63971 22.6131C3.01981 23.4566 3.26974 24.4095 3.83729 25.0916C4.12366 25.4404 4.99321 25.3051 5.5972 25.3884C5.69092 25.3988 5.78465 25.4144 5.87837 25.4248C11.2362 26.2215 15.4642 28.8145 18.4842 33.3392C18.6612 33.6048 18.9476 34.0005 19.1819 34.0005C20.0879 33.9953 20.9991 33.8547 21.9155 33.7662C20.5513 26.2006 9.29407 19.9941 2.63971 22.6131Z" fill="#E9F3FF"/>
<path d="M31.3608 16.2659C28.4085 12.1369 24.3367 9.38769 19.7131 7.42992C16.5108 6.07093 13.1941 5.25345 9.67425 5.67521C8.45585 5.821 7.31555 6.16986 6.37311 6.9613C18.3957 7.2633 27.44 12.4701 33.657 22.7537C33.6674 22.0716 33.7716 21.3114 33.5216 20.697C32.8968 19.1714 32.3032 17.5833 31.3608 16.2659Z" fill="#E9F3FF"/>
<path d="M34.1311 14.1103C31.6839 4.79523 21.7388 0.312128 14.3867 2.58232C22.3064 4.14437 28.8045 7.91934 34.1311 14.1103Z" fill="#E9F3FF"/>
<path d="M5.26431 27.5753C8.10725 31.1837 11.7208 33.2872 16.3549 33.9693C14.5846 30.663 8.34677 27.0859 5.26431 27.5753Z" fill="#E9F3FF"/>
</svg>
