<svg width="32" height="36" viewBox="0 0 32 36" fill="none" xmlns="http://www.w3.org/2000/svg">
<g clip-path="url(#clip0_236_28968)">
<path d="M15.9141 29.6598C10.4488 29.6598 6.01062 25.2217 6.01062 19.7564C6.01062 14.4432 14.9757 5.05963 15.3562 4.66654L15.8253 4.172L16.3072 4.65386C16.7003 5.04695 25.8176 14.4305 25.8176 19.7437C25.8176 25.2217 21.3794 29.6598 15.9141 29.6598ZM15.838 6.08676C15.0518 6.93635 13.4034 8.77503 11.7676 10.9307C8.86374 14.7602 7.32939 17.8036 7.32939 19.7437C7.32939 24.4735 11.1843 28.3284 15.9141 28.3284C20.6439 28.3284 24.4988 24.4735 24.4988 19.7437C24.4988 17.8036 22.9391 14.7602 19.9846 10.9307C18.3234 8.78771 16.6369 6.93635 15.838 6.08676Z" fill="#E9F3FF"/>
<path d="M15.9144 32.8299C8.69922 32.8299 2.84082 26.9588 2.84082 19.7563C2.84082 12.7059 12.6809 2.86582 13.0994 2.46004C13.353 2.20643 13.7841 2.20643 14.0377 2.46004C14.2913 2.71365 14.2913 3.14479 14.0377 3.3984C13.9363 3.49984 4.17228 13.2638 4.17228 19.7563C4.17228 26.236 9.44737 31.5111 15.9271 31.5111C22.4069 31.5111 27.682 26.236 27.682 19.7563C27.682 17.0934 25.9574 13.416 22.6858 9.09195C20.1751 5.78234 17.6517 3.27159 17.6263 3.24623C17.36 2.99262 17.36 2.57416 17.6263 2.30787C17.8799 2.04158 18.2984 2.04158 18.5647 2.30787C18.9958 2.72633 29.0134 12.6932 29.0134 19.7563C28.9881 26.9588 23.1297 32.8299 15.9144 32.8299Z" fill="#E9F3FF"/>
<path d="M15.9141 36C7.13913 36 0 28.8609 0 20.086C0 16.4593 1.826 11.9958 5.41458 6.83483C8.06481 3.03068 10.6643 0.317044 10.7784 0.202919C11.0321 -0.0633718 11.4505 -0.0633718 11.7168 0.190239C11.9831 0.443849 11.9831 0.862306 11.7295 1.1286C11.7041 1.15396 9.07925 3.89295 6.49243 7.60834C3.10673 12.465 1.31877 16.7764 1.31877 20.086C1.31877 28.1254 7.86192 34.6813 15.9141 34.6813C23.9662 34.6813 30.5093 28.1381 30.5093 20.086C30.5093 16.7764 28.7087 12.465 25.2976 7.60834C22.6855 3.89295 20.0352 1.15396 20.0099 1.1286C19.7563 0.862306 19.7563 0.443849 20.0225 0.190239C20.2888 -0.0633718 20.7073 -0.0633718 20.9609 0.202919C21.4047 0.659418 31.8281 11.4886 31.8281 20.086C31.8281 28.8609 24.689 36 15.9141 36Z" fill="#E9F3FF"/>
</g>
<defs>
<clipPath id="clip0_236_28968">
<rect width="31.8281" height="36" fill="white"/>
</clipPath>
</defs>
</svg>
