<svg width="34" height="27" viewBox="0 0 34 27" fill="none" xmlns="http://www.w3.org/2000/svg">
<path d="M17 0.00305176C32.3 -0.156836 34 6.03489 34 13.4757C34 20.9168 32.5299 27.2691 17 26.9493C1.4701 26.6295 -3.25254e-07 20.9168 0 13.4757C3.37054e-05 6.03489 1.69997 0.162951 17 0.00305176ZM18.1729 3.81946C15.0794 3.81961 12.3417 5.34219 10.668 7.67883C7.35145 8.40246 4.86737 11.3564 4.86719 14.8898C4.86719 18.966 8.17198 22.2705 12.248 22.2706H23.668C26.8495 22.2705 29.4287 19.6915 29.4287 16.5099C29.4287 14.728 28.6195 13.1349 27.3486 12.0782C26.8653 7.43743 22.9415 3.81946 18.1729 3.81946ZM23.7021 12.5704C24.4519 12.5704 25.0596 13.179 25.0596 13.9288C25.0594 17.0527 22.5272 19.5851 19.4033 19.5851C16.2793 19.5851 13.7472 17.0527 13.7471 13.9288C13.7471 13.179 14.3548 12.5704 15.1045 12.5704C15.4101 12.5705 15.9175 12.6421 16.5186 12.7267C17.3926 12.8496 18.4651 13.0011 19.4033 13.0011C20.3416 13.0011 21.414 12.8496 22.2881 12.7267C22.8892 12.6421 23.3966 12.5705 23.7021 12.5704ZM19.4033 15.422C18.2737 15.422 17.2401 15.6286 16.4473 15.9708C15.9783 16.1734 15.8592 16.7884 16.2227 17.1476C17.04 17.9551 18.1636 18.4542 19.4033 18.4542C20.6429 18.4542 21.7659 17.955 22.583 17.1476C22.9468 16.7881 22.8276 16.1734 22.3584 15.9708C21.5656 15.6287 20.5328 15.422 19.4033 15.422ZM16.2354 8.12512C17.1102 8.12512 17.8193 8.83431 17.8193 9.70911C17.8191 10.5837 17.11 11.2931 16.2354 11.2931C15.3608 11.2929 14.6516 10.5836 14.6514 9.70911C14.6514 8.83442 15.3607 8.12531 16.2354 8.12512ZM22.5713 8.12512C23.446 8.12526 24.1553 8.83439 24.1553 9.70911C24.155 10.5836 23.4458 11.293 22.5713 11.2931C21.6966 11.2931 20.9876 10.5837 20.9873 9.70911C20.9873 8.83431 21.6965 8.12512 22.5713 8.12512Z" fill="#E9F3FF"/>
</svg>
