<svg width="33" height="28" viewBox="0 0 33 28" fill="none" xmlns="http://www.w3.org/2000/svg">
<path d="M17.8781 0C19.6152 0.00330474 21.2043 0.440275 22.7365 1.33523C23.6172 1.84941 24.4859 2.52536 25.3184 3.34496C26.2086 4.22134 27.0886 5.29143 27.9327 6.52548C28.2214 6.94712 28.4888 7.38344 28.7333 7.83216C29.419 8.20027 30.5143 8.95794 31.5465 10.4032C32.7633 12.1075 32.9749 13.6963 32.9999 14.4315C33.0052 14.5934 32.8118 14.6634 32.6946 14.5516C32.2149 14.0921 31.234 13.3086 30.3462 13.5728C30.3861 14.6526 30.286 15.7337 30.0488 16.7878C29.6906 18.3883 29.0323 19.9155 28.0912 21.3262C27.1696 22.7072 26.0171 23.9195 24.6842 24.9095C22.2934 26.6904 19.5022 27.634 16.6945 27.6341C16.2103 27.6342 15.7263 27.606 15.2431 27.5494C13.6306 27.3603 12.0529 26.8562 10.5541 26.0507C8.94487 25.1857 7.42549 23.9705 6.03831 22.4399L5.69663 22.0628C5.59611 21.9517 5.46611 21.8102 5.35396 21.6876C2.52328 21.7525 0.608502 18.8573 0.0238785 17.8395C-0.054063 17.7034 0.0708919 17.5455 0.226723 17.5657C2.25301 17.8302 3.46178 16.0692 5.09006 17.3934L5.09302 17.3983C5.05506 15.3041 7.18566 15.4336 8.22431 13.6753C8.30448 13.5404 8.50491 13.5398 8.56402 13.6851C9.00754 14.7762 10.1151 18.0834 8.29816 20.2736C8.31276 20.2824 8.32744 20.2911 8.34247 20.2992L8.36708 20.313L8.39072 20.3268C9.66075 21.1161 10.8572 21.7002 11.9464 22.0628C12.9475 22.3961 13.8659 22.5458 14.6759 22.5069C15.4239 22.4708 16.077 22.2748 16.6177 21.9249C17.1192 21.6007 17.5144 21.151 17.7915 20.5887C18.243 19.6717 18.3479 18.4978 18.0977 17.3009C16.7581 16.5712 14.4702 17.1831 13.3348 17.5657C13.0485 17.6625 12.768 17.4084 12.871 17.1246C13.2663 16.0365 14.2427 14.0227 16.1165 13.755L16.1264 13.753C15.9062 13.5434 15.6716 13.3491 15.4243 13.1721C13.0148 11.4535 10.665 8.76595 9.43842 6.32461C8.8253 5.10423 8.54352 4.03871 8.6231 3.24354C8.66579 2.81855 8.81068 2.47126 9.05538 2.21159C9.31433 1.93653 9.68711 1.75724 10.1622 1.67888C10.8594 1.56419 11.6861 1.3071 12.5608 1.0349C12.9075 0.925701 13.2551 0.818809 13.6036 0.715863C14.8153 0.361436 16.2681 0 17.8584 0H17.8781ZM23.4554 23.7702C31.716 16.939 18.193 4.31307 11.5466 5.26214C10.8435 5.36281 11.0669 5.88938 11.1518 6.04791L11.1675 6.07548C11.1738 6.08662 11.1774 6.09321 11.1774 6.09321V6.09419C11.6891 7.0013 12.3713 7.95417 13.1733 8.87986C14.1646 10.0242 15.2735 11.0466 16.3785 11.8349C17.87 12.8988 18.9895 14.475 19.5304 16.2728C19.7881 17.1295 19.9021 17.9916 19.8691 18.835C19.8336 19.7388 19.6298 20.5731 19.2646 21.3144C18.8544 22.1466 18.2647 22.8168 17.5108 23.3045C16.7236 23.814 15.7958 24.0971 14.7547 24.1473C14.6437 24.1526 14.5312 24.1552 14.418 24.1552C12.4981 24.1551 10.2587 23.3858 7.75264 21.8639C8.8741 23.008 10.0758 23.9281 11.332 24.6033C12.6478 25.3106 14.0279 25.7529 15.4341 25.9178C18.2058 26.2429 21.0424 25.4808 23.4554 23.7702ZM19.1996 3.60492C17.7698 3.60504 18.2304 4.48069 18.4611 4.80426C18.6918 5.12728 19.2924 5.52422 19.8928 5.82439C20.4927 6.12441 21.2774 6.20049 21.7391 6.23599C22.2004 6.27122 23.1224 6.18928 23.2614 5.82439C22.8166 5.22501 20.6304 3.60492 19.1996 3.60492Z" fill="#E9F3FF"/>
</svg>
